<svg width="34" height="34" viewBox="0 0 34 34" fill="none" xmlns="http://www.w3.org/2000/svg">
<rect width="34" height="34" rx="10" fill="#23262F"/>
<path d="M16.3776 15.7474V13.0391H14.9193C14.1159 13.0391 13.5763 13.0404 13.1738 13.0945C12.7892 13.1462 12.6246 13.2356 12.516 13.3442C12.4074 13.4528 12.3181 13.6173 12.2664 14.0019C12.2123 14.4044 12.2109 14.9441 12.2109 15.7474H16.3776Z" fill="#F9FAFB"/>
<path d="M21.0389 14.9974H18.375V13.7891H19.0833C19.9085 13.7891 20.3881 13.792 20.7289 13.8378L20.7289 13.8378C20.8446 13.8534 20.9124 13.8704 20.9488 13.8819C20.9604 13.9184 20.9774 13.9861 20.9929 14.1018L21.7362 14.0019L20.9929 14.1018C21.0227 14.323 21.0343 14.6027 21.0389 14.9974Z" fill="#F9FAFB" stroke="white" stroke-width="1.5"/>
<path fill-rule="evenodd" clip-rule="evenodd" d="M17.8307 10.3359H16.1641C13.0214 10.3359 11.45 10.3359 10.4737 11.3122C9.62167 12.1643 9.51323 13.4696 9.49943 15.8771V17.2247C9.18248 17.4071 8.9324 17.6899 8.79093 18.0314C8.66406 18.3378 8.66406 18.726 8.66406 19.5026C8.66406 20.2792 8.66406 20.6674 8.79093 20.9738C8.96009 21.3821 9.28455 21.7066 9.69292 21.8758C9.90325 21.9629 10.1522 21.9902 10.5391 21.9987V23.6693C10.5391 24.0144 10.8189 24.2943 11.1641 24.2943C11.5092 24.2943 11.7891 24.0144 11.7891 23.6693V22.0026H22.2057V23.6693C22.2057 24.0144 22.4856 24.2943 22.8307 24.2943C23.1759 24.2943 23.4557 24.0144 23.4557 23.6693V21.9987C23.8426 21.9902 24.0916 21.9629 24.3019 21.8758C24.7102 21.7066 25.0347 21.3821 25.2039 20.9738C25.3307 20.6674 25.3307 20.2792 25.3307 19.5026C25.3307 18.726 25.3307 18.3378 25.2039 18.0314C25.0624 17.6899 24.8123 17.4071 24.4954 17.2248V15.8771C24.4816 13.4696 24.3731 12.1643 23.5211 11.3122C22.5448 10.3359 20.9735 10.3359 17.8307 10.3359ZM23.0391 17.0027V15.7093C23.0391 14.9606 23.0391 14.3362 22.9725 13.8405C22.9021 13.3174 22.7474 12.845 22.3679 12.4655C21.9883 12.0859 21.516 11.9312 20.9928 11.8609C20.4971 11.7942 19.8728 11.7942 19.1241 11.7943H14.8708C14.122 11.7942 13.4977 11.7942 13.002 11.8609C12.4789 11.9312 12.0065 12.0859 11.627 12.4655C11.2474 12.845 11.0927 13.3174 11.0223 13.8405C10.9557 14.3362 10.9557 14.9605 10.9558 15.7093V17.0027C11.0219 17.0026 11.0913 17.0026 11.1641 17.0026H22.8307C22.9035 17.0026 22.9729 17.0026 23.0391 17.0027Z" fill="#F9FAFB"/>
</svg>
