<svg width="13" height="8" viewBox="0 0 13 8" fill="none" xmlns="http://www.w3.org/2000/svg">
<path d="M12.0145 0.996923C11.8723 0.827802 11.6649 0.735824 11.4367 0.735824H10.373C10.3849 0.551868 10.3493 0.326374 10.2219 0.172088C10.1271 0.0593406 9.98783 0 9.82486 0H0.607087C0.367087 0 0.227827 0.103846 0.153753 0.18989C0.00264207 0.367912 -0.0180985 0.634945 0.0115311 0.827802C0.266346 2.38846 0.814494 3.80967 1.55523 4.82143C2.10338 5.57209 2.74635 6.10615 3.4782 6.42363H0.912272C0.592272 6.42363 0.334494 6.68473 0.334494 7.0022C0.334494 7.31967 0.595235 7.58077 0.912272 7.58077H9.46338C9.78338 7.58077 10.0412 7.31967 10.0412 7.0022C10.0412 6.68473 9.78042 6.42363 9.46338 6.42363H6.90931C7.51079 6.16549 8.05301 5.75901 8.52709 5.20714C9.34486 5.13593 10.1626 4.74725 10.8619 4.08857C11.576 3.41802 12.0619 2.56055 12.1982 1.73571C12.213 1.63484 12.2515 1.27879 12.0145 0.996923ZM9.47227 3.74736C9.78338 3.10945 9.99968 2.45374 10.1508 1.85143H11.0278C10.8056 2.56648 10.2071 3.32011 9.47227 3.74736Z" fill="#9757D7"/>
</svg>
