<svg width="42" height="42" viewBox="0 0 42 42" fill="none" xmlns="http://www.w3.org/2000/svg">
<path d="M21 0C26.5695 0 31.911 2.21249 35.8492 6.15076C39.7875 10.089 42 15.4305 42 21C42 26.5695 39.7875 31.911 35.8492 35.8492C31.911 39.7875 26.5695 42 21 42C15.4305 42 10.089 39.7875 6.15076 35.8492C2.21249 31.911 0 26.5695 0 21C0 15.4305 2.21249 10.089 6.15076 6.15076C10.089 2.21249 15.4305 0 21 0ZM18.384 25.143L13.719 20.475C13.5518 20.3078 13.3532 20.1751 13.1347 20.0846C12.9162 19.9941 12.682 19.9475 12.4455 19.9475C12.209 19.9475 11.9748 19.9941 11.7563 20.0846C11.5378 20.1751 11.3392 20.3078 11.172 20.475C10.8342 20.8128 10.6445 21.2708 10.6445 21.7485C10.6445 22.2262 10.8342 22.6842 11.172 23.022L17.112 28.962C17.2788 29.1301 17.4772 29.2635 17.6957 29.3545C17.9143 29.4456 18.1487 29.4924 18.3855 29.4924C18.6223 29.4924 18.8567 29.4456 19.0753 29.3545C19.2938 29.2635 19.4922 29.1301 19.659 28.962L31.959 16.659C32.1285 16.4925 32.2633 16.294 32.3557 16.0751C32.4481 15.8562 32.4962 15.6211 32.4973 15.3835C32.4984 15.1459 32.4525 14.9105 32.3621 14.6907C32.2718 14.4709 32.1388 14.2712 31.9709 14.1031C31.803 13.935 31.6034 13.8018 31.3838 13.7112C31.1641 13.6206 30.9287 13.5744 30.6911 13.5752C30.4535 13.576 30.2184 13.6239 29.9994 13.716C29.7804 13.8081 29.5817 13.9427 29.415 14.112L18.384 25.143Z" fill="#2FA2B9"/>
</svg>
