<svg width="14" height="14" viewBox="0 0 14 14" fill="none" xmlns="http://www.w3.org/2000/svg">
<path d="M8.59288 7.00195L13.046 2.54883C13.2574 2.33785 13.3762 2.05157 13.3765 1.75295C13.3768 1.45432 13.2584 1.16783 13.0474 0.956483C12.8364 0.745138 12.5502 0.626258 12.2515 0.625995C11.9529 0.625731 11.6664 0.744105 11.4551 0.955076L7.00195 5.4082L2.54883 0.955076C2.33748 0.743732 2.05084 0.625 1.75195 0.625C1.45307 0.625 1.16642 0.743732 0.955076 0.955076C0.743732 1.16642 0.625 1.45307 0.625 1.75195C0.625 2.05084 0.743732 2.33748 0.955076 2.54883L5.4082 7.00195L0.955076 11.4551C0.743732 11.6664 0.625 11.9531 0.625 12.2519C0.625 12.5508 0.743732 12.8375 0.955076 13.0488C1.16642 13.2602 1.45307 13.3789 1.75195 13.3789C2.05084 13.3789 2.33748 13.2602 2.54883 13.0488L7.00195 8.5957L11.4551 13.0488C11.6664 13.2602 11.9531 13.3789 12.2519 13.3789C12.5508 13.3789 12.8375 13.2602 13.0488 13.0488C13.2602 12.8375 13.3789 12.5508 13.3789 12.2519C13.3789 11.9531 13.2602 11.6664 13.0488 11.4551L8.59288 7.00195Z" fill="#B1B5C4"/>
</svg>
