<svg width="12" height="13" viewBox="0 0 12 13" fill="none" xmlns="http://www.w3.org/2000/svg">
<path d="M11.6608 2.09881C12.0112 1.74839 12.0112 1.18024 11.6608 0.829813V0.829813C11.3104 0.479388 10.7422 0.479388 10.3918 0.829812L5.99531 5.22631L1.59881 0.829812C1.24839 0.479387 0.680237 0.479388 0.329813 0.829813V0.829813C-0.0206121 1.18024 -0.0206122 1.74839 0.329812 2.09881L4.72631 6.49531L0.329812 10.8918C-0.0206127 11.2422 -0.0206121 11.8104 0.329813 12.1608V12.1608C0.680237 12.5112 1.24839 12.5112 1.59881 12.1608L5.99531 7.76431L10.3918 12.1608C10.7422 12.5112 11.3104 12.5112 11.6608 12.1608V12.1608C12.0112 11.8104 12.0112 11.2422 11.6608 10.8918L7.26431 6.49531L11.6608 2.09881Z" fill="black"/>
</svg>
