<svg id="Layer_1" data-name="Layer 1" xmlns="http://www.w3.org/2000/svg" viewBox="0 0 512 512"><defs><style>.cls-1{fill:#141f38;}</style></defs><title>document-check-glyph</title><path class="cls-1" d="M422.4,358.4a76.8,76.8,0,1,0,76.8,76.8A76.89,76.89,0,0,0,422.4,358.4ZM459,416.19l-30.72,51.2a12.79,12.79,0,0,1-8.84,6,12.34,12.34,0,0,1-2.14.18,12.8,12.8,0,0,1-8.19-3l-20.48-17.07A12.8,12.8,0,0,1,405,433.9l9,7.5L437,403A12.8,12.8,0,0,1,459,416.19Zm-139,19A102.4,102.4,0,0,1,422.4,332.8V153.6L268.94,0H76.8a64,64,0,0,0-64,64V448a64,64,0,0,0,64,64h278A102.05,102.05,0,0,1,320,435.2ZM256,25.6,396.8,166.4H320a64,64,0,0,1-64-64ZM128,243.2H230.4a12.8,12.8,0,1,1,0,25.6H128a12.8,12.8,0,1,1,0-25.6Zm0,51.2H307.2a12.8,12.8,0,0,1,0,25.6H128a12.8,12.8,0,0,1,0-25.6Zm178.82,76.8H128a12.8,12.8,0,1,1,0-25.6H306.82a12.8,12.8,0,1,1,0,25.6Z"/></svg>