<svg width="20" height="20" viewBox="0 0 20 20" fill="none" xmlns="http://www.w3.org/2000/svg">
<mask id="mask0_98_11799" style="mask-type:luminance" maskUnits="userSpaceOnUse" x="4" y="12" width="12" height="6">
<path fill-rule="evenodd" clip-rule="evenodd" d="M4 12.0625H16V18.0003H4V12.0625Z" fill="white"/>
</mask>
<g mask="url(#mask0_98_11799)">
<path fill-rule="evenodd" clip-rule="evenodd" d="M10.0008 13.2704C6.77276 13.2704 5.13639 13.8598 5.13639 15.0234C5.13639 16.1974 6.77276 16.7925 10.0008 16.7925C13.2281 16.7925 14.8637 16.203 14.8637 15.0395C14.8637 13.8655 13.2281 13.2704 10.0008 13.2704ZM10.0008 18.0003C8.5167 18.0003 4 18.0003 4 15.0233C4 12.3693 7.42502 12.0625 10.0008 12.0625C11.4849 12.0625 16.0001 12.0625 16.0001 15.0395C16.0001 17.6935 12.5758 18.0003 10.0008 18.0003Z" fill="#2FA2B9"/>
</g>
<mask id="mask1_98_11799" style="mask-type:luminance" maskUnits="userSpaceOnUse" x="5" y="2" width="10" height="9">
<path fill-rule="evenodd" clip-rule="evenodd" d="M5.97656 2H14.0221V10.5505H5.97656V2Z" fill="white"/>
</mask>
<g mask="url(#mask1_98_11799)">
<path fill-rule="evenodd" clip-rule="evenodd" d="M10.0001 3.14996C8.37816 3.14996 7.05845 4.55188 7.05845 6.27588C7.05315 7.99425 8.363 9.39536 9.97817 9.4018L10.0001 9.97674V9.4018C11.6214 9.4018 12.9403 7.99908 12.9403 6.27588C12.9403 4.55188 11.6214 3.14996 10.0001 3.14996ZM10.0001 10.5508H9.97585C7.7622 10.5435 5.96901 8.62466 5.97659 6.27338C5.97659 3.91807 7.78114 2 10.0001 2C12.2183 2 14.0221 3.91807 14.0221 6.27579C14.0221 8.63352 12.2183 10.5508 10.0001 10.5508Z" fill="#2FA2B9"/>
</g>
</svg>
