<svg width="24" height="25" viewBox="0 0 24 25" fill="none" xmlns="http://www.w3.org/2000/svg">
    <g clip-path="url(#clip0_23_46660)">
        <path
            d="M23.5049 12.4761C23.5049 11.4929 23.4265 10.7753 23.2569 10.0312H12.2266V14.4692H18.7011C18.5706 15.5721 17.8657 17.2331 16.2993 18.3492L16.2773 18.4978L19.7649 21.248L20.0065 21.2725C22.2256 19.1863 23.5049 16.1169 23.5049 12.4761Z"
            fill="#4285F4" />
        <path
            d="M12.2296 24.1639C15.4016 24.1639 18.0645 23.1009 20.0095 21.2672L16.3023 18.3439C15.3102 19.0482 13.9787 19.5398 12.2296 19.5398C9.1228 19.5398 6.48598 17.4537 5.54603 14.5703L5.40825 14.5822L1.7818 17.4391L1.73438 17.5732C3.6663 21.4798 7.63462 24.1639 12.2296 24.1639Z"
            fill="#34A853" />
        <path
            d="M5.54133 14.5728C5.29331 13.8287 5.14978 13.0314 5.14978 12.2076C5.14978 11.3838 5.29331 10.5865 5.52828 9.84244L5.52171 9.68397L1.84982 6.78125L1.72968 6.83942C0.933445 8.46052 0.476562 10.2809 0.476562 12.2076C0.476562 14.1343 0.933445 15.9547 1.72968 17.5758L5.54133 14.5728Z"
            fill="#FBBC05" />
        <path
            d="M12.2295 4.87403C14.4356 4.87403 15.9237 5.84401 16.7722 6.65461L20.0878 3.35928C18.0515 1.4326 15.4015 0.25 12.2295 0.25C7.63462 0.25 3.6663 2.93406 1.73438 6.84056L5.53297 9.84359C6.48597 6.9602 9.12279 4.87403 12.2295 4.87403Z"
            fill="#EB4335" />
    </g>
    <defs>
        <clipPath id="clip0_23_46660">
            <rect width="23.04" height="24" fill="white" transform="translate(0.476562 0.25)" />
        </clipPath>
    </defs>
</svg>
