<svg width="25" height="25" viewBox="0 0 25 25" fill="none" xmlns="http://www.w3.org/2000/svg">
<path d="M9.65734 21.2714V18.2047C9.65732 17.4246 10.2932 16.7908 11.0811 16.7856H13.9672C14.7589 16.7856 15.4006 17.4209 15.4006 18.2047V18.2047V21.2809C15.4004 21.9432 15.9344 22.4845 16.6032 22.5H18.5272C20.4452 22.5 22.0001 20.9607 22.0001 19.0618V19.0618V10.3378C21.9899 9.59083 21.6356 8.88935 21.0381 8.43303L14.4578 3.1853C13.3051 2.27157 11.6663 2.27157 10.5135 3.1853L3.96215 8.44256C3.36238 8.89702 3.00751 9.59967 3.00012 10.3474V19.0618C3.00012 20.9607 4.555 22.5 6.47303 22.5H8.39708C9.08248 22.5 9.6381 21.9499 9.6381 21.2714V21.2714" stroke="#777E91" stroke-width="1.5" stroke-linecap="round" stroke-linejoin="round"/>
</svg>
