<svg width="9" height="9" viewBox="0 0 9 9" fill="none" xmlns="http://www.w3.org/2000/svg">
<g clip-path="url(#clip0_40_11483)">
<path d="M7.6875 7.875H7.5V1.6875C7.50262 1.61293 7.48986 1.53861 7.46252 1.46918C7.43518 1.39975 7.39384 1.33669 7.34107 1.28393C7.28831 1.23116 7.22525 1.18982 7.15582 1.16248C7.08639 1.13514 7.01207 1.12238 6.9375 1.125H5.625V0.75C5.625 0.650544 5.58549 0.555161 5.51516 0.484835C5.44484 0.414509 5.34946 0.375 5.25 0.375H3.75C3.65054 0.375 3.55516 0.414509 3.48484 0.484835C3.41451 0.555161 3.375 0.650544 3.375 0.75V1.125H2.0625C1.98793 1.12238 1.91361 1.13514 1.84418 1.16248C1.77475 1.18982 1.71169 1.23116 1.65893 1.28393C1.60616 1.33669 1.56482 1.39975 1.53748 1.46918C1.51014 1.53861 1.49738 1.61293 1.5 1.6875V7.875H1.3125C1.21304 7.875 1.11766 7.91451 1.04733 7.98483C0.977009 8.05516 0.9375 8.15054 0.9375 8.25C0.9375 8.34946 0.977009 8.44484 1.04733 8.51517C1.11766 8.58549 1.21304 8.625 1.3125 8.625H7.6875C7.78696 8.625 7.88234 8.58549 7.95267 8.51517C8.02299 8.44484 8.0625 8.34946 8.0625 8.25C8.0625 8.15054 8.02299 8.05516 7.95267 7.98483C7.88234 7.91451 7.78696 7.875 7.6875 7.875ZM3.9375 1.3125H4.3125V0.9375C4.3125 0.887772 4.33225 0.840081 4.36742 0.804918C4.40258 0.769754 4.45027 0.75 4.5 0.75C4.54973 0.75 4.59742 0.769754 4.63258 0.804918C4.66775 0.840081 4.6875 0.887772 4.6875 0.9375V1.3125H5.0625C5.11223 1.3125 5.15992 1.33225 5.19508 1.36742C5.23025 1.40258 5.25 1.45027 5.25 1.5C5.25 1.54973 5.23025 1.59742 5.19508 1.63258C5.15992 1.66775 5.11223 1.6875 5.0625 1.6875H4.6875V2.0625C4.6875 2.11223 4.66775 2.15992 4.63258 2.19508C4.59742 2.23025 4.54973 2.25 4.5 2.25C4.45027 2.25 4.40258 2.23025 4.36742 2.19508C4.33225 2.15992 4.3125 2.11223 4.3125 2.0625V1.6875H3.9375C3.88777 1.6875 3.84008 1.66775 3.80492 1.63258C3.76975 1.59742 3.75 1.54973 3.75 1.5C3.75 1.45027 3.76975 1.40258 3.80492 1.36742C3.84008 1.33225 3.88777 1.3125 3.9375 1.3125ZM3 3H4.125V4.125H3V3ZM3 4.6875H4.125V5.8125H3V4.6875ZM5.0625 7.875H3.9375V6.5625H5.0625V7.875ZM6 5.8125H4.875V4.6875H6V5.8125ZM6 4.125H4.875V3H6V4.125Z" fill="#48BC65"/>
</g>
<defs>
<clipPath id="clip0_40_11483">
<rect width="9" height="9" fill="white"/>
</clipPath>
</defs>
</svg>
