<svg width="40" height="40" viewBox="0 0 40 40" fill="none" xmlns="http://www.w3.org/2000/svg">
<rect width="40" height="40" rx="20" fill="#2FA2B9" fill-opacity="0.15"/>
<g clip-path="url(#clip0_85_14904)">
<path d="M13.9984 10.7969C13.7784 10.7969 13.5984 10.9769 13.5984 11.1969V12.593L10.9664 14.4727C10.8624 14.5447 10.7984 14.6689 10.7984 14.7969V16.3969C10.7984 16.6169 10.9784 16.7969 11.1984 16.7969H19.9984C20.2184 16.7969 20.3984 16.6169 20.3984 16.3969V14.7969C20.3984 14.6689 20.3345 14.5447 20.2305 14.4727L17.5984 12.593V11.1969C17.5984 10.9769 17.4184 10.7969 17.1984 10.7969H13.9984ZM12.7938 18.7969C12.5742 18.7969 12.3945 18.9769 12.3945 19.1969V19.5969H10.7977C10.5781 19.5969 10.3984 19.7769 10.3984 19.9969V28.7969C10.3984 29.0169 10.5781 29.1969 10.7977 29.1969H20.3219C20.5735 29.1969 20.7766 28.9926 20.7766 28.7406V20.0297C20.7766 19.7905 20.5833 19.5969 20.3445 19.5969H18.7805V19.2508C18.7805 19 18.5777 18.7969 18.3273 18.7969H12.7938ZM22.0328 19.5969C22.006 19.5961 21.835 19.5949 21.7086 19.7312C21.6106 19.8369 21.6004 19.9609 21.5984 19.9969V22.7969H29.5984V19.9969C29.5984 19.7769 29.4188 19.5969 29.1992 19.5969H28.3609H24.7688H22.0328ZM12.3945 21.1969H18.7812C19.0008 21.1969 19.1805 21.3769 19.1805 21.5969V27.1969C19.1805 27.4169 19.0008 27.5969 18.7812 27.5969H12.3945C12.1749 27.5969 11.9953 27.4169 11.9953 27.1969V21.5969C11.9953 21.3769 12.1749 21.1969 12.3945 21.1969ZM23.1719 21.1969H27.9617C28.1813 21.1969 28.3609 21.3769 28.3609 21.5969C28.3609 21.8169 28.1813 21.9969 27.9617 21.9969H23.1719C22.9523 21.9969 22.7727 21.8169 22.7727 21.5969C22.7727 21.3769 22.9523 21.1969 23.1719 21.1969ZM12.7938 21.9969V26.7969H18.382V21.9969H12.7938ZM21.5984 23.5969V28.7969C21.5992 28.8301 21.6059 28.958 21.7055 29.0664C21.8287 29.2 21.9955 29.1977 22.0211 29.1969H29.1992C29.4188 29.1969 29.5984 29.0169 29.5984 28.7969V23.5969H21.5984ZM23.1719 24.7969C23.3915 24.7969 23.5711 24.9769 23.5711 25.1969V27.1969C23.5711 27.4169 23.3915 27.5969 23.1719 27.5969C22.9523 27.5969 22.7727 27.4169 22.7727 27.1969V25.1969C22.7727 24.9769 22.9523 24.7969 23.1719 24.7969Z" fill="#2FA2B9"/>
</g>
<defs>
<clipPath id="clip0_85_14904">
<rect width="20" height="20" fill="white" transform="translate(10 10)"/>
</clipPath>
</defs>
</svg>
