<svg width="25" height="25" viewBox="0 0 25 25" fill="none" xmlns="http://www.w3.org/2000/svg">
<path fill-rule="evenodd" clip-rule="evenodd" d="M4 10.8178C4 6.21789 7.84388 2.5 12.4934 2.5C17.1561 2.5 21 6.21789 21 10.8178C21 13.1357 20.157 15.2876 18.7695 17.1116C17.2388 19.1235 15.3522 20.8765 13.2285 22.2524C12.7425 22.5704 12.3039 22.5944 11.7704 22.2524C9.63474 20.8765 7.74809 19.1235 6.2305 17.1116C4.84198 15.2876 4 13.1357 4 10.8178ZM9.69423 11.0768C9.69423 12.6177 10.9517 13.8297 12.4934 13.8297C14.0362 13.8297 15.3058 12.6177 15.3058 11.0768C15.3058 9.5478 14.0362 8.27683 12.4934 8.27683C10.9517 8.27683 9.69423 9.5478 9.69423 11.0768Z" fill="#353945"/>
</svg>
