<svg width="25" height="25" viewBox="0 0 25 25" fill="none" xmlns="http://www.w3.org/2000/svg">
<path fill-rule="evenodd" clip-rule="evenodd" d="M12.4971 9.16346C11.5028 9.16346 10.694 9.96859 10.694 10.9594C10.694 11.9491 11.5028 12.7532 12.4971 12.7532C13.4913 12.7532 14.3001 11.9491 14.3001 10.9594C14.3001 9.96859 13.4913 9.16346 12.4971 9.16346ZM12.497 14.2917C10.6507 14.2917 9.14844 12.7973 9.14844 10.9594C9.14844 9.12038 10.6507 7.625 12.497 7.625C14.3434 7.625 15.8456 9.12038 15.8456 10.9594C15.8456 12.7973 14.3434 14.2917 12.497 14.2917Z" fill="#777E91"/>
<mask id="mask0_77_411" style="mask-type:luminance" maskUnits="userSpaceOnUse" x="4" y="2" width="17" height="21">
<path fill-rule="evenodd" clip-rule="evenodd" d="M4 2.5H21V22.5H4V2.5Z" fill="white"/>
</mask>
<g mask="url(#mask0_77_411)">
<path fill-rule="evenodd" clip-rule="evenodd" d="M12.5002 4.03846C8.66532 4.03846 5.54547 7.17385 5.54547 11.0262C5.54547 15.9277 11.3401 20.7031 12.5002 20.9574C13.6604 20.7021 19.455 15.9267 19.455 11.0262C19.455 7.17385 16.3351 4.03846 12.5002 4.03846ZM12.5003 22.5C10.6518 22.5 4 16.8056 4 11.0262C4 6.32462 7.81327 2.5 12.5003 2.5C17.1872 2.5 21.0005 6.32462 21.0005 11.0262C21.0005 16.8056 14.3487 22.5 12.5003 22.5Z" fill="#777E91"/>
</g>
</svg>
