<svg width="327" height="197" viewBox="0 0 327 197" fill="none" xmlns="http://www.w3.org/2000/svg">
    <g clip-path="url(#clip0_23_46801)">
        <path
            d="M250.356 194.038C246.169 190.501 243.626 184.913 244.293 179.472C244.96 174.032 249.091 169.031 254.448 167.876C259.806 166.72 265.914 169.918 267.541 175.152C268.437 165.062 269.469 154.548 274.834 145.955C279.691 138.175 288.105 132.607 297.223 131.611C306.342 130.615 315.942 134.377 321.629 141.574C327.316 148.771 328.708 159.234 324.725 167.497C321.791 173.584 316.386 178.114 310.722 181.799C292.42 193.607 270.47 198.409 248.91 195.321L250.356 194.038Z"
            fill="#F2F2F2" />
        <path
            d="M312.611 134.582C305.087 140.711 298.185 147.565 292.004 155.045C282.33 166.712 274.503 179.793 268.793 193.832C268.375 194.856 270.039 195.302 270.452 194.289C279.793 171.473 294.706 151.363 313.827 135.798C314.685 135.099 313.462 133.889 312.611 134.582Z"
            fill="white" />
        <path
            d="M105.267 193.078C111.017 188.219 114.509 180.544 113.593 173.072C112.678 165.6 107.004 158.73 99.6454 157.144C92.2864 155.557 83.8977 159.949 81.6626 167.138C80.4324 153.278 79.015 138.838 71.6464 127.036C64.9744 116.349 53.4184 108.702 40.8942 107.334C28.3701 105.966 15.1838 111.133 7.37294 121.018C-0.437916 130.903 -2.35037 145.274 3.12015 156.623C7.15008 164.984 14.5747 171.205 22.3537 176.267C47.1717 192.416 77.9585 199.151 107.252 194.84"
            fill="#F2F2F2" />
        <path
            d="M19.7594 111.418C30.0934 119.835 39.5737 129.249 48.0633 139.523C56.5542 149.787 64.0295 160.851 70.3842 172.558C73.9363 179.125 77.1271 185.882 79.9426 192.797C80.5166 194.203 78.2324 194.816 77.6647 193.425C72.6779 181.233 66.5082 169.56 59.2441 158.572C52.0153 147.624 43.7416 137.403 34.5392 128.053C29.3342 122.767 23.8426 117.771 18.0891 113.088C16.9098 112.128 18.5899 110.465 19.7594 111.418Z"
            fill="white" />
        <path
            d="M234.721 195.822H97.5312V55.0621C97.5312 25.1142 121.895 0.75 151.843 0.75H180.409C210.357 0.75 234.721 25.1142 234.721 55.0621V195.822Z"
            fill="#F2F2F2" />
        <path
            d="M206.156 195.821H97.5314V55.0606C97.5015 43.5853 101.135 32.4 107.904 23.1332C108.153 22.7932 108.402 22.4575 108.659 22.1255C111.932 17.8317 115.828 14.0502 120.218 10.9058C120.466 10.7254 120.715 10.5481 120.967 10.3708C124.64 7.82903 128.614 5.75116 132.797 4.18451C133.045 4.09036 133.298 3.99603 133.551 3.90555C137.334 2.55548 141.256 1.63069 145.243 1.14825C145.491 1.11448 145.744 1.08806 145.998 1.06163C149.884 0.646124 153.804 0.646124 157.69 1.06163C157.943 1.08806 158.196 1.11448 158.447 1.14861C162.433 1.63108 166.354 2.55576 170.136 3.90557C170.389 3.99605 170.642 4.09037 170.891 4.18471C175.022 5.73159 178.949 7.77846 182.583 10.2796C182.835 10.4531 183.088 10.6303 183.337 10.8076C185.797 12.5639 188.108 14.5206 190.247 16.6575C191.961 18.3716 193.559 20.1988 195.029 22.1266C195.285 22.4575 195.534 22.7932 195.783 23.1327C202.552 32.3996 206.186 43.5851 206.156 55.0606V195.821Z"
            fill="#CCCCCC" />
        <path
            d="M197.326 132.864C200.648 132.864 203.34 130.171 203.34 126.85C203.34 123.528 200.648 120.836 197.326 120.836C194.005 120.836 191.312 123.528 191.312 126.85C191.312 130.171 194.005 132.864 197.326 132.864Z"
            fill="#2FA2B9" />
        <path d="M223.488 191.602H218.88L216.688 173.828L223.489 173.829L223.488 191.602Z"
            fill="#FFB8B8" />
        <path
            d="M215.588 190.289H224.474V195.884H209.992C209.992 195.15 210.137 194.422 210.418 193.743C210.699 193.064 211.111 192.448 211.631 191.928C212.151 191.408 212.767 190.996 213.446 190.715C214.125 190.434 214.853 190.289 215.588 190.289Z"
            fill="#2F2E41" />
        <path d="M246.418 191.602H241.81L239.617 173.828L246.418 173.829L246.418 191.602Z"
            fill="#FFB8B8" />
        <path
            d="M238.509 190.289H247.396V195.884H232.914C232.914 195.15 233.059 194.422 233.34 193.743C233.621 193.064 234.033 192.448 234.553 191.928C235.073 191.408 235.689 190.996 236.368 190.715C237.047 190.434 237.775 190.289 238.509 190.289Z"
            fill="#2F2E41" />
        <path
            d="M200.369 128.043C200.037 127.554 199.817 126.999 199.723 126.417C199.629 125.834 199.665 125.237 199.826 124.67C199.988 124.102 200.272 123.577 200.659 123.131C201.045 122.684 201.525 122.329 202.064 122.088L217.728 78.9141L225.436 83.1205L207.551 124.379C207.895 125.311 207.885 126.338 207.523 127.263C207.161 128.189 206.472 128.95 205.587 129.401C204.702 129.853 203.682 129.964 202.72 129.714C201.758 129.463 200.922 128.869 200.369 128.043Z"
            fill="#FFB8B8" />
        <path
            d="M244.057 136.157C243.545 135.863 243.104 135.461 242.764 134.978C242.424 134.495 242.194 133.944 242.091 133.363C241.987 132.782 242.012 132.185 242.164 131.615C242.316 131.044 242.591 130.514 242.97 130.061L238.117 84.3906L246.889 84.7914L248.906 129.715C249.624 130.402 250.065 131.328 250.145 132.319C250.226 133.309 249.94 134.295 249.343 135.089C248.745 135.883 247.877 136.43 246.903 136.627C245.929 136.824 244.916 136.657 244.057 136.157Z"
            fill="#FFB8B8" />
        <path
            d="M230.067 70.9162C235.166 70.9162 239.299 66.7831 239.299 61.6847C239.299 56.5862 235.166 52.4531 230.067 52.4531C224.969 52.4531 220.836 56.5862 220.836 61.6847C220.836 66.7831 224.969 70.9162 230.067 70.9162Z"
            fill="#FFB8B8" />
        <path
            d="M244.003 125.766H216.172L216.205 125.55C216.255 125.226 221.166 93.0605 217.544 82.5375C217.181 81.5034 217.213 80.3714 217.634 79.3594C218.055 78.3474 218.836 77.527 219.825 77.0561C225.002 74.6185 234.938 71.6169 243.324 78.9013C244.558 79.9908 245.522 81.3525 246.139 82.8788C246.756 84.405 247.01 86.0538 246.88 87.6949L244.003 125.766Z"
            fill="#2FA2B9" />
        <path
            d="M221.514 97.8157L208.984 95.2737L214.858 81.3556C215.209 80.0075 216.081 78.8539 217.282 78.1478C218.483 77.4417 219.915 77.2407 221.264 77.5889C222.612 77.9371 223.768 78.8061 224.477 80.0053C225.186 81.2045 225.391 82.636 225.046 83.9857L221.514 97.8157Z"
            fill="#2FA2B9" />
        <path
            d="M237.56 102.536L236.806 85.2684C236.235 82.0224 238.093 78.9538 240.951 78.4523C243.81 77.9525 246.601 80.2038 247.175 83.4737L250.006 99.6086L237.56 102.536Z"
            fill="#2FA2B9" />
        <path
            d="M243.077 123.703C247.555 140.759 248.043 162.443 246.835 186.096L240.821 185.345L229.921 140.241L223.908 186.096L217.142 185.72C215.121 160.902 213.153 139.596 216.39 125.582L243.077 123.703Z"
            fill="#2F2E41" />
        <path
            d="M236.15 68.8158C234.428 70.6503 231.23 69.6655 231.006 67.1593C230.988 66.9647 230.989 66.7689 231.009 66.5746C231.125 65.4644 231.767 64.4566 231.613 63.2844C231.578 62.9927 231.469 62.7147 231.297 62.4767C229.925 60.639 226.703 63.2987 225.408 61.6351C224.614 60.615 225.547 59.0089 224.938 57.8687C224.134 56.3639 221.751 57.1063 220.257 56.2822C218.595 55.3652 218.694 52.8147 219.788 51.2634C221.123 49.3715 223.463 48.3619 225.773 48.2164C228.084 48.0709 230.379 48.6955 232.536 49.5362C234.987 50.4914 237.418 51.8115 238.926 53.9667C240.76 56.5877 240.937 60.1113 240.019 63.176C239.461 65.0403 237.557 67.3177 236.15 68.8158Z"
            fill="#2F2E41" />
        <path
            d="M315.716 196.059H38.2197C38.1012 196.059 37.9877 196.011 37.9041 195.928C37.8204 195.844 37.7734 195.73 37.7734 195.612C37.7734 195.493 37.8204 195.379 37.9041 195.296C37.9877 195.212 38.1012 195.164 38.2197 195.164H315.716C315.835 195.164 315.948 195.212 316.032 195.296C316.116 195.379 316.163 195.493 316.163 195.612C316.163 195.73 316.116 195.844 316.032 195.928C315.948 196.011 315.835 196.059 315.716 196.059Z"
            fill="#3F3D56" />
        <path
            d="M176.274 155.043H127.412C126.768 155.046 126.15 154.794 125.692 154.342C125.234 153.89 124.974 153.275 124.969 152.631V43.5676C124.974 42.9241 125.234 42.3088 125.692 41.8568C126.15 41.4047 126.768 41.1528 127.412 41.1563H176.274C176.917 41.1528 177.536 41.4047 177.994 41.8568C178.452 42.3088 178.712 42.9241 178.717 43.5676V152.631C178.712 153.275 178.452 153.89 177.994 154.342C177.536 154.794 176.917 155.046 176.274 155.043Z"
            fill="white" />
        <path d="M178.717 76.4453H124.969V77.197H178.717V76.4453Z" fill="#CCCCCC" />
        <path d="M178.912 119.336H125.164V120.088H178.912V119.336Z" fill="#CCCCCC" />
        <path d="M142.642 41.1562H141.891V155.418H142.642V41.1562Z" fill="#CCCCCC" />
        <path d="M161.431 41.1562H160.68V155.418H161.431V41.1562Z" fill="#CCCCCC" />
    </g>
    <defs>
        <clipPath id="clip0_23_46801">
            <rect width="327" height="195.5" fill="white" transform="translate(0 0.75)" />
        </clipPath>
    </defs>
</svg>
