<svg width="9" height="9" viewBox="0 0 9 9" fill="none" xmlns="http://www.w3.org/2000/svg">
<g clip-path="url(#clip0_70_1057)">
<path d="M4.49938 0.359375C4.47102 0.359375 4.44251 0.365914 4.41641 0.379414L0.636406 2.35941C0.577006 2.39181 0.539375 2.45313 0.539375 2.51973V2.87973H8.45938V2.51973C8.45938 2.45313 8.42174 2.39181 8.36234 2.35941L4.58234 0.379414C4.55624 0.365914 4.52773 0.359375 4.49938 0.359375ZM0.899375 3.23973V3.4918C0.899375 3.7168 1.05058 3.90027 1.25938 3.94707V6.83973H2.69938V3.94707C2.90817 3.90027 3.05938 3.7168 3.05938 3.4918V3.23973H0.899375ZM3.41938 3.23973V3.4918C3.41938 3.7168 3.57058 3.90027 3.77938 3.94707V6.83973H5.21938V3.94707C5.42817 3.90027 5.57938 3.7168 5.57938 3.4918V3.23973H3.41938ZM5.93938 3.23973V3.4918C5.93938 3.7168 6.09058 3.90027 6.29938 3.94707V6.83973H7.73938V3.94707C7.94818 3.90027 8.09938 3.7168 8.09938 3.4918V3.23973H5.93938ZM0.719375 7.19973C0.640175 7.19973 0.552102 7.22839 0.489102 7.28059C0.406302 7.35079 0.359375 7.4552 0.359375 7.565V8.06C0.359375 8.2832 0.524905 8.45973 0.737305 8.45973H8.24352C8.45232 8.45973 8.62145 8.28888 8.62145 8.07828V7.58328C8.62145 7.37268 8.45232 7.20148 8.24352 7.20148C8.24352 7.20148 0.733775 7.19973 0.719375 7.19973Z" fill="#F77F00"/>
</g>
<defs>
<clipPath id="clip0_70_1057">
<rect width="9" height="9" fill="white"/>
</clipPath>
</defs>
</svg>
