<svg width="20" height="20" viewBox="0 0 20 20" fill="none" xmlns="http://www.w3.org/2000/svg">
<path fill-rule="evenodd" clip-rule="evenodd" d="M5.48714 3.23077C3.23073 3.23077 3.23073 3.40143 3.23073 5.48718V5.50769C3.23073 6.416 3.23073 7.07241 3.45309 7.34974C3.67052 7.61887 4.31627 7.74359 5.48714 7.74359C6.65801 7.74359 7.30375 7.61805 7.52119 7.34892C7.74355 7.07241 7.74355 6.416 7.74355 5.50687C7.74355 3.40143 7.74355 3.23077 5.48714 3.23077ZM5.48718 8.97436C4.10379 8.97436 3.06585 8.82913 2.49559 8.12103C2 7.50646 2 6.6679 2 5.50769L2.61538 5.48718H2C2 3.13231 2.14851 2 5.48718 2C8.82585 2 8.97436 3.13231 8.97436 5.48718C8.97436 6.66708 8.97436 7.50646 8.47877 8.12103C7.90851 8.82913 6.87056 8.97436 5.48718 8.97436Z" fill="#2FA2B9"/>
<path fill-rule="evenodd" clip-rule="evenodd" d="M14.5106 3.23077C12.2542 3.23077 12.2542 3.40143 12.2542 5.48718V5.50769C12.2542 6.416 12.2542 7.07241 12.4766 7.34974C12.694 7.61887 13.3398 7.74359 14.5106 7.74359C15.6815 7.74359 16.3273 7.61805 16.5447 7.34892C16.7671 7.07241 16.7671 6.416 16.7671 5.50687C16.7671 3.40143 16.7671 3.23077 14.5106 3.23077ZM14.5106 8.97436C13.1272 8.97436 12.0893 8.82913 11.519 8.12103C11.0234 7.50646 11.0234 6.6679 11.0234 5.50769L11.6388 5.48718H11.0234C11.0234 3.13231 11.172 2 14.5106 2C17.8493 2 17.9978 3.13231 17.9978 5.48718C17.9978 6.66708 17.9978 7.50646 17.5022 8.12103C16.932 8.82913 15.894 8.97436 14.5106 8.97436Z" fill="#2FA2B9"/>
<path fill-rule="evenodd" clip-rule="evenodd" d="M5.48714 12.2542C3.23073 12.2542 3.23073 12.4249 3.23073 14.5106V14.5311C3.23073 15.4394 3.23073 16.0958 3.45309 16.3732C3.67052 16.6423 4.31627 16.767 5.48714 16.767C6.65801 16.767 7.30375 16.6415 7.52119 16.3724C7.74355 16.0958 7.74355 15.4394 7.74355 14.5303C7.74355 12.4249 7.74355 12.2542 5.48714 12.2542ZM5.48718 17.9978C4.10379 17.9978 3.06585 17.8526 2.49559 17.1445C2 16.5299 2 15.6913 2 14.5311L2.61538 14.5106H2C2 12.1557 2.14851 11.0234 5.48718 11.0234C8.82585 11.0234 8.97436 12.1557 8.97436 14.5106C8.97436 15.6905 8.97436 16.5299 8.47877 17.1445C7.90851 17.8526 6.87056 17.9978 5.48718 17.9978Z" fill="#2FA2B9"/>
<path fill-rule="evenodd" clip-rule="evenodd" d="M14.5106 12.2542C12.2542 12.2542 12.2542 12.4249 12.2542 14.5106V14.5311C12.2542 15.4394 12.2542 16.0958 12.4766 16.3732C12.694 16.6423 13.3398 16.767 14.5106 16.767C15.6815 16.767 16.3273 16.6415 16.5447 16.3724C16.7671 16.0958 16.7671 15.4394 16.7671 14.5303C16.7671 12.4249 16.7671 12.2542 14.5106 12.2542ZM14.5106 17.9978C13.1272 17.9978 12.0893 17.8526 11.519 17.1445C11.0234 16.5299 11.0234 15.6913 11.0234 14.5311L11.6388 14.5106H11.0234C11.0234 12.1557 11.172 11.0234 14.5106 11.0234C17.8493 11.0234 17.9978 12.1557 17.9978 14.5106C17.9978 15.6905 17.9978 16.5299 17.5022 17.1445C16.932 17.8526 15.894 17.9978 14.5106 17.9978Z" fill="#2FA2B9"/>
</svg>
