<svg width="20" height="20" viewBox="0 0 20 20" fill="none" xmlns="http://www.w3.org/2000/svg">
<path d="M15.8344 7.26075L11.3902 3.80408C11.0002 3.50067 10.5202 3.33594 10.026 3.33594C9.53191 3.33594 9.05188 3.50067 8.66187 3.80408L4.21687 7.26075C3.94974 7.46848 3.73362 7.73452 3.585 8.03854C3.43639 8.34255 3.35922 8.67651 3.35938 9.01491V15.0149C3.35938 15.4569 3.53497 15.8809 3.84753 16.1934C4.16009 16.506 4.58401 16.6816 5.02604 16.6816H15.026C15.4681 16.6816 15.892 16.506 16.2046 16.1934C16.5171 15.8809 16.6927 15.4569 16.6927 15.0149V9.01491C16.6927 8.32908 16.376 7.68158 15.8344 7.26075Z" stroke="#2FA2B9" stroke-width="1.5" stroke-linecap="round" stroke-linejoin="round"/>
<path d="M13.3307 12.5C11.4891 13.6108 8.50406 13.6108 6.66406 12.5" stroke="#2FA2B9" stroke-width="1.5" stroke-linecap="round" stroke-linejoin="round"/>
</svg>
