<svg width="25" height="30" viewBox="0 0 25 30" fill="none" xmlns="http://www.w3.org/2000/svg">
<path fill-rule="evenodd" clip-rule="evenodd" d="M11.732 29.7362L11.7289 29.7339L11.7211 29.7277L11.6937 29.7062C11.6702 29.6876 11.6364 29.6609 11.5927 29.626C11.5057 29.5564 11.3799 29.4546 11.2209 29.3234C10.903 29.061 10.4519 28.68 9.91174 28.1999C8.83327 27.2412 7.39161 25.8801 5.94589 24.2737C4.50379 22.6714 3.03366 20.7987 1.91834 18.816C0.809525 16.8447 0 14.6741 0 12.5C0 9.1848 1.31696 6.00537 3.66116 3.66116C6.00537 1.31696 9.1848 0 12.5 0C15.8152 0 18.9946 1.31696 21.3389 3.66116C23.683 6.00537 25 9.1848 25 12.5C25 14.6741 24.1905 16.8447 23.0816 18.816C21.9664 20.7987 20.4962 22.6714 19.0541 24.2737C17.6084 25.8801 16.1667 27.2412 15.0882 28.1999C14.5481 28.68 14.097 29.061 13.7791 29.3234C13.6201 29.4546 13.4942 29.5564 13.4072 29.626C13.3636 29.6609 13.3298 29.6876 13.3062 29.7062L13.2789 29.7277L13.2711 29.7339L13.2687 29.7356C13.2687 29.7356 13.2674 29.7367 12.5 28.75L13.2674 29.7367C12.816 30.0877 12.1834 30.0874 11.732 29.7362ZM12.5 28.75L11.732 29.7362C11.732 29.7362 11.7326 29.7367 12.5 28.75Z" fill="#3772FF"/>
<path fill-rule="evenodd" clip-rule="evenodd" d="M11.732 29.7362L11.7289 29.7339L11.7211 29.7277L11.6937 29.7062C11.6702 29.6876 11.6364 29.6609 11.5927 29.626C11.5057 29.5564 11.3799 29.4546 11.2209 29.3234C10.903 29.061 10.4519 28.68 9.91174 28.1999C8.83327 27.2412 7.39161 25.8801 5.94589 24.2737C4.50379 22.6714 3.03366 20.7987 1.91834 18.816C0.809525 16.8447 0 14.6741 0 12.5C0 9.1848 1.31696 6.00537 3.66116 3.66116C6.00537 1.31696 9.1848 0 12.5 0C15.8152 0 18.9946 1.31696 21.3389 3.66116C23.683 6.00537 25 9.1848 25 12.5C25 14.6741 24.1905 16.8447 23.0816 18.816C21.9664 20.7987 20.4962 22.6714 19.0541 24.2737C17.6084 25.8801 16.1667 27.2412 15.0882 28.1999C14.5481 28.68 14.097 29.061 13.7791 29.3234C13.6201 29.4546 13.4942 29.5564 13.4072 29.626C13.3636 29.6609 13.3298 29.6876 13.3062 29.7062L13.2789 29.7277L13.2711 29.7339L13.2687 29.7356C13.2687 29.7356 13.2674 29.7367 12.5 28.75L13.2674 29.7367C12.816 30.0877 12.1834 30.0874 11.732 29.7362ZM12.5 28.75L11.732 29.7362C11.732 29.7362 11.7326 29.7367 12.5 28.75Z" fill="black" fill-opacity="0.25"/>
</svg>
