<svg width="42" height="42" viewBox="0 0 42 42" fill="none" xmlns="http://www.w3.org/2000/svg">
<path d="M5.7406 3.88444C5.22804 3.37187 4.397 3.37185 3.88444 3.88441C3.37187 4.39696 3.37185 5.228 3.88441 5.74056L6.09572 7.95191C5.55947 8.8197 5.25 9.84247 5.25 10.9375V31.0625C5.25 34.2036 7.79637 36.75 10.9375 36.75H31.0625C32.1575 36.75 33.18 36.4406 34.0478 35.9046L36.2589 38.1159C36.7715 38.6284 37.6026 38.6284 38.1152 38.1159C38.6277 37.6033 38.6277 36.7722 38.1152 36.2597L5.7406 3.88444ZM21.1192 22.9756L31.9793 33.8361C32.0126 33.8751 32.0456 33.9139 32.0784 33.9524C31.7606 34.0643 31.4186 34.125 31.0625 34.125H10.9375C10.5807 34.125 10.2382 34.0639 9.91979 33.9519L20.0816 24.0009L21.1192 22.9756ZM19.4581 21.3145C19.0186 21.5014 18.6063 21.7716 18.2451 22.1252L8.05571 32.1015C7.93875 31.777 7.875 31.4272 7.875 31.0625V10.9375C7.875 10.5765 7.93748 10.2301 8.05219 9.90843L19.4581 21.3145Z" fill="#777E91"/>
<path d="M34.1257 28.557V10.9375C34.1257 9.24612 32.7545 7.875 31.0632 7.875H13.4441L10.8203 5.25119C10.8595 5.2504 10.8988 5.25 10.9382 5.25H31.0632C34.2042 5.25 36.7507 7.79637 36.7507 10.9375V31.0625C36.7507 31.102 36.7503 31.1416 36.7494 31.1808L34.1257 28.557Z" fill="#777E91"/>
<path d="M26.6912 11.375C28.8678 11.375 30.6323 13.1395 30.6323 15.3162C30.6323 17.4929 28.8678 19.2573 26.6912 19.2573C24.5145 19.2573 22.75 17.4929 22.75 15.3162C22.75 13.1395 24.5145 11.375 26.6912 11.375ZM26.6912 14C25.9642 14 25.375 14.5893 25.375 15.3162C25.375 16.0431 25.9642 16.6324 26.6912 16.6324C27.4181 16.6324 28.0073 16.0431 28.0073 15.3162C28.0073 14.5893 27.4181 14 26.6912 14Z" fill="#777E91"/>
</svg>
