<svg width="25" height="24" viewBox="0 0 25 24" fill="none" xmlns="http://www.w3.org/2000/svg">
<mask id="mask0_77_423" style="mask-type:luminance" maskUnits="userSpaceOnUse" x="4" y="14" width="17" height="8">
<path fill-rule="evenodd" clip-rule="evenodd" d="M4.5 14.5781H20.5V22.0004H4.5V14.5781Z" fill="white"/>
</mask>
<g mask="url(#mask0_77_423)">
<path fill-rule="evenodd" clip-rule="evenodd" d="M12.501 16.0879C8.19697 16.0879 6.01514 16.8247 6.01514 18.2792C6.01514 19.7467 8.19697 20.4906 12.501 20.4906C16.8041 20.4906 18.9849 19.7538 18.9849 18.2993C18.9849 16.8318 16.8041 16.0879 12.501 16.0879ZM12.5011 22.0004C10.5223 22.0004 4.5 22.0004 4.5 18.2792C4.5 14.9616 9.0667 14.5781 12.5011 14.5781C14.4799 14.5781 20.5001 14.5781 20.5001 18.2993C20.5001 21.6169 15.9344 22.0004 12.5011 22.0004Z" fill="#777E91"/>
</g>
<mask id="mask1_77_423" style="mask-type:luminance" maskUnits="userSpaceOnUse" x="7" y="2" width="11" height="11">
<path fill-rule="evenodd" clip-rule="evenodd" d="M7.13281 2H17.8602V12.6881H7.13281V2Z" fill="white"/>
</mask>
<g mask="url(#mask1_77_423)">
<path fill-rule="evenodd" clip-rule="evenodd" d="M12.4976 3.43735C10.3349 3.43735 8.57534 5.18974 8.57534 7.34475C8.56827 9.49271 10.3147 11.2441 12.4683 11.2521L12.4976 11.9708V11.2521C14.6592 11.2521 16.4178 9.49875 16.4178 7.34475C16.4178 5.18974 14.6592 3.43735 12.4976 3.43735ZM12.4975 12.6885H12.4652C9.51367 12.6794 7.12274 10.2808 7.13284 7.34172C7.13284 4.39758 9.53892 2 12.4975 2C15.4551 2 17.8602 4.39758 17.8602 7.34474C17.8602 10.2919 15.4551 12.6885 12.4975 12.6885Z" fill="#777E91"/>
</g>
</svg>
