<svg width="13" height="14" viewBox="0 0 13 14" fill="none" xmlns="http://www.w3.org/2000/svg">
<path d="M11.8776 4.48299C11.4746 4.07948 10.8287 4.05574 10.3991 4.42959L7.3324 7.09102C7.19906 7.20673 7.11906 7.37288 7.11314 7.55091C7.10721 7.72893 7.1724 7.90102 7.29684 8.02563L7.30573 8.03453L3.03906 12.5355C3.07462 12.586 3.11314 12.6364 3.16054 12.6839C3.3798 12.9034 3.66721 13.0191 3.97536 13.0132C4.28351 13.0073 4.56795 12.8797 4.78129 12.6542L7.75906 9.46464L11.8805 5.3375C12.1146 5.10014 12.1146 4.71739 11.8776 4.48299Z" fill="#1A3064"/>
<path d="M3.58243 8.07626L4.93058 6.63132L4.48614 6.18626L5.72169 4.94901C6.06836 5.17451 6.49503 5.26648 6.95429 5.21604C7.51725 5.15374 8.0654 4.8778 8.50095 4.44165L10.1691 2.77121L9.67429 2.27571L8.25206 3.69989L7.6091 3.05604L9.03132 1.63187L8.53651 1.13637L7.11429 2.56055L6.47429 1.91967L7.89651 0.495494L7.40169 0L5.73355 1.67044C5.29799 2.10659 5.02243 2.65549 4.96021 3.21923C4.90984 3.67912 5.00169 4.10637 5.22688 4.45352L3.99132 5.69077L3.54688 5.24571L0.358731 8.22758C0.133546 8.43824 0.00613793 8.72308 0.000212001 9.03462C-0.00571392 9.34319 0.112805 9.63396 0.329101 9.85352C0.54836 10.0731 0.835768 10.1888 1.14392 10.1829C1.45206 10.1769 1.73651 10.0493 1.94984 9.82385L2.20466 9.55088" fill="#1A3064"/>
</svg>
