<svg width="20" height="20" viewBox="0 0 20 20" fill="none" xmlns="http://www.w3.org/2000/svg">
<path d="M12.6965 2.70312C8.67238 2.70312 5.39844 5.97699 5.39844 10.0012C5.39844 14.0254 8.6723 17.2993 12.6965 17.2993C16.7207 17.2993 19.9946 14.0254 19.9946 10.0012C19.9946 5.97699 16.7206 2.70312 12.6965 2.70312ZM12.6965 15.9292C9.4278 15.9292 6.76847 13.2699 6.76847 10.0011C6.76847 6.73237 9.4278 4.07312 12.6965 4.07312C15.9652 4.07312 18.6245 6.73241 18.6245 10.0012C18.6245 13.2699 15.9652 15.9292 12.6965 15.9292Z" fill="#2FA2B9"/>
<path d="M12.7074 4.9375C9.91355 4.9375 7.64062 7.21043 7.64062 10.0042C7.64062 12.7981 9.91355 15.071 12.7074 15.071C15.5012 15.071 17.7742 12.7981 17.7742 10.0042C17.7742 7.21043 15.5012 4.9375 12.7074 4.9375ZM12.7074 13.7009C10.669 13.7009 9.01066 12.0426 9.01066 10.0042C9.01066 7.96581 10.669 6.3075 12.7074 6.3075C14.7458 6.3075 16.4041 7.96581 16.4041 10.0042C16.4041 12.0426 14.7457 13.7009 12.7074 13.7009Z" fill="#2FA2B9"/>
<path d="M4.51218 3.15164C4.13386 3.15164 3.82718 3.45836 3.82718 3.83664V6.81156H3.30077V3.81781C3.30077 3.43949 2.99406 3.13281 2.61578 3.13281C2.23746 3.13281 1.93078 3.43953 1.93078 3.81781V6.81159H1.37004V3.81781C1.37004 3.43949 1.06332 3.13281 0.685038 3.13281C0.306718 3.13281 0 3.43949 0 3.81781V7.83464C0 7.85386 0.00132812 7.87276 0.00289062 7.89163C-0.00433593 8.0012 0.00566405 8.11198 0.0344921 8.22042L0.331484 9.10042C0.451288 9.48799 0.764725 10.123 1.53144 10.123H1.91539V16.6132C1.91539 16.9915 2.2221 17.2982 2.60039 17.2982C2.9787 17.2982 3.28538 16.9915 3.28538 16.6132V10.123H3.66898C4.43691 10.123 4.73515 9.42194 4.84737 9.15803L4.85835 9.13221L5.15722 8.23124L5.15811 8.22745C5.18296 8.15651 5.19718 8.08058 5.19718 8.00112V3.83668C5.19722 3.45836 4.8905 3.15164 4.51218 3.15164ZM3.57585 8.6471C3.56343 8.676 3.54558 8.71655 3.52781 8.75296H1.65968C1.65332 8.736 1.64636 8.71565 1.63898 8.69136L1.46644 8.18163H3.73027L3.57585 8.6471Z" fill="#2FA2B9"/>
</svg>
