<svg width="9" height="9" viewBox="0 0 9 9" fill="none" xmlns="http://www.w3.org/2000/svg">
<g clip-path="url(#clip0_70_988)">
<path d="M6.1875 9C6.49816 9 6.75 8.74816 6.75 8.4375C6.75 8.12684 6.49816 7.875 6.1875 7.875C5.87684 7.875 5.625 8.12684 5.625 8.4375C5.625 8.74816 5.87684 9 6.1875 9Z" fill="#588157"/>
<path d="M3.9375 9C4.24816 9 4.5 8.74816 4.5 8.4375C4.5 8.12684 4.24816 7.875 3.9375 7.875C3.62684 7.875 3.375 8.12684 3.375 8.4375C3.375 8.74816 3.62684 9 3.9375 9Z" fill="#588157"/>
<path d="M8.89397 3.04594C8.78794 2.89927 8.6182 2.8125 8.4375 2.8125H2.66864L2.24072 0.461953C2.19234 0.194484 1.95947 0 1.6875 0H0.5625C0.251578 0 0 0.251578 0 0.5625C0 0.873422 0.251578 1.125 0.5625 1.125H1.21781L2.25928 6.85055C2.30766 7.11802 2.54053 7.3125 2.8125 7.3125H7.3125C7.5548 7.3125 7.76953 7.15753 7.84589 6.92803L8.97089 3.55303C9.02855 3.38161 8.99944 3.19261 8.89397 3.04594Z" fill="#588157"/>
</g>
<defs>
<clipPath id="clip0_70_988">
<rect width="9" height="9" fill="white"/>
</clipPath>
</defs>
</svg>
