<svg width="20" height="20" viewBox="0 0 20 20" fill="none" xmlns="http://www.w3.org/2000/svg">
<path d="M13.3341 9.99919C13.3348 10.1089 13.3138 10.2176 13.2723 10.3191C13.2308 10.4206 13.1697 10.513 13.0925 10.5909L8.09247 15.5909C7.93555 15.7478 7.72272 15.8359 7.50081 15.8359C7.27889 15.8359 7.06606 15.7478 6.90914 15.5909C6.75222 15.4339 6.66406 15.2211 6.66406 14.9992C6.66406 14.7773 6.75222 14.5644 6.90914 14.4075L11.3258 9.99919L6.91747 5.59086C6.78095 5.43144 6.70961 5.22638 6.71771 5.01665C6.72581 4.80692 6.81276 4.60797 6.96117 4.45956C7.10958 4.31114 7.30853 4.2242 7.51826 4.2161C7.72799 4.208 7.93305 4.27934 8.09247 4.41586L13.0925 9.41586C13.2464 9.57108 13.3332 9.78058 13.3341 9.99919Z" fill="#B1B5C4"/>
</svg>
