<svg width="20" height="20" viewBox="0 0 20 20" fill="none" xmlns="http://www.w3.org/2000/svg">
<g clip-path="url(#clip0_140_18078)">
<path d="M19.5573 12.2637V10.3556C19.5573 9.56512 19.2529 8.81863 18.7001 8.25352L17.657 7.18711L16.4431 5.16863C16.0907 4.5827 15.4472 4.21875 14.7635 4.21875H2.32707C1.22867 4.21875 0.335078 5.11234 0.335078 6.21074V9.59273C0.135039 9.70766 0 9.92293 0 10.1701V11.7831C0 12.0303 0.135039 12.2456 0.335039 12.3605V12.8905C0.335039 13.2582 0.633203 13.5564 1.00098 13.5564H2.34027C2.34023 13.5616 2.33988 13.5667 2.33988 13.5718C2.33988 14.783 3.32527 15.7684 4.53652 15.7684C5.74777 15.7684 6.73309 14.783 6.73309 13.5718C6.73309 13.5666 6.73273 13.5615 6.7327 13.5564H13.476C13.4759 13.5616 13.4756 13.5667 13.4756 13.5718C13.4756 14.783 14.4609 15.7684 15.6721 15.7684C16.8834 15.7684 17.8688 14.783 17.8688 13.5718C17.8688 13.5666 17.8684 13.5615 17.8684 13.5564H19.3341C19.7019 13.5564 20 13.2582 20 12.8905C20 12.6012 19.8151 12.3556 19.5573 12.2637ZM13.5479 5.55062H14.7636C14.9826 5.55062 15.1889 5.66727 15.3018 5.855L16.4545 7.77187H13.5479V5.55062ZM1.66691 6.21078C1.66691 5.8468 1.96309 5.55062 2.32707 5.55062H12.2161V7.77187H1.66691V6.21078ZM4.53652 14.4366C4.05969 14.4366 3.67176 14.0487 3.67176 13.5719C3.67176 13.0951 4.05969 12.7071 4.53652 12.7071C5.01336 12.7071 5.40125 13.0951 5.40125 13.5719C5.40125 14.0487 5.01336 14.4366 4.53652 14.4366ZM15.6721 14.4366C15.1953 14.4366 14.8074 14.0487 14.8074 13.5719C14.8074 13.0951 15.1953 12.7071 15.6721 12.7071C16.1489 12.7071 16.5369 13.0951 16.5369 13.5719C16.5369 14.0487 16.1489 14.4366 15.6721 14.4366ZM18.2254 12.2246H17.4051C17.0028 11.7083 16.3758 11.3753 15.6721 11.3753C14.9684 11.3753 14.3413 11.7083 13.9391 12.2246H6.26949C5.86723 11.7083 5.2402 11.3753 4.53648 11.3753C3.83277 11.3753 3.20574 11.7083 2.80348 12.2246H1.66691V9.10375H17.6687L17.748 9.18492C18.0559 9.49965 18.2254 9.91539 18.2254 10.3556V12.2246Z" fill="#2FA2B9"/>
</g>
<defs>
<clipPath id="clip0_140_18078">
<rect width="20" height="20" fill="white"/>
</clipPath>
</defs>
</svg>
