<svg width="43" height="43" viewBox="0 0 43 43" fill="none" xmlns="http://www.w3.org/2000/svg">
<g clip-path="url(#clip0_249_6291)">
<path opacity="0.5" d="M33.9393 3.61719H14.6719V11.6072H38.0543V7.73061C38.0543 5.46225 36.2083 3.61719 33.9393 3.61719Z" fill="#2FA2B9"/>
<path d="M23.0352 12.8403H0.5V5.42636C0.5 2.70972 2.71068 0.5 5.42828 0.5H12.6336C13.3497 0.5 14.0396 0.650925 14.6664 0.934509C15.5418 1.32896 16.2939 1.97913 16.8213 2.8286L23.0352 12.8403Z" fill="#2FA2B9"/>
<path d="M42.5 14.5023V38.3837C42.5 40.6549 40.6511 42.5022 38.3789 42.5022H4.62111C2.34891 42.5022 0.5 40.6549 0.5 38.3837V10.3828H38.3789C40.6511 10.3828 42.5 12.2308 42.5 14.5023Z" fill="#2FA2B9"/>
<path d="M42.5 14.5023V38.3837C42.5 40.6549 40.6511 42.5022 38.3789 42.5022H21.5V10.3828H38.3789C40.6511 10.3828 42.5 12.2308 42.5 14.5023Z" fill="#2FA2B9"/>
<path d="M32.549 26.4386C32.549 32.531 27.5928 37.4875 21.5011 37.4875C15.4093 37.4875 10.4531 32.531 10.4531 26.4386C10.4531 20.3471 15.4093 15.3906 21.5011 15.3906C27.5928 15.3906 32.549 20.3471 32.549 26.4386Z" fill="#F4F5F6"/>
<path d="M32.5479 26.4386C32.5479 32.531 27.5918 37.4875 21.5 37.4875V15.3906C27.5918 15.3906 32.5479 20.3471 32.5479 26.4386Z" fill="#FCFCFD"/>
<path d="M25.0593 26.5719C24.8289 26.767 24.5466 26.8622 24.2668 26.8622C23.9166 26.8622 23.5686 26.7138 23.3251 26.4248L22.7287 25.7179V30.346C22.7287 31.0253 22.1776 31.5764 21.4983 31.5764C20.8189 31.5764 20.2678 31.0253 20.2678 30.346V25.7179L19.6715 26.4248C19.2325 26.9442 18.4567 27.0106 17.9373 26.5719C17.4182 26.1339 17.3515 25.3578 17.7896 24.8383L20.2252 21.9509C20.5427 21.5753 21.0061 21.3594 21.4983 21.3594C21.9905 21.3594 22.4538 21.5753 22.7714 21.9509L25.207 24.8383C25.645 25.3578 25.5784 26.1339 25.0593 26.5719Z" fill="#2FA2B9"/>
<path d="M25.061 26.5719C24.8306 26.767 24.5483 26.8622 24.2686 26.8622C23.9183 26.8622 23.5703 26.7138 23.3268 26.4248L22.7305 25.7179V30.346C22.7305 31.0253 22.1793 31.5764 21.5 31.5764V21.3594C21.9922 21.3594 22.4555 21.5753 22.7731 21.9509L25.2087 24.8383C25.6467 25.3578 25.5801 26.1339 25.061 26.5719Z" fill="#2FA2B9"/>
</g>
<defs>
<clipPath id="clip0_249_6291">
<rect width="42" height="42" fill="white" transform="translate(0.5 0.5)"/>
</clipPath>
</defs>
</svg>
