<svg width="249" height="196" viewBox="0 0 249 196" fill="none" xmlns="http://www.w3.org/2000/svg">
<g clip-path="url(#clip0_28_47417)">
<path d="M45.7493 23.0609C45.2835 23.1123 44.8347 23.2652 44.4344 23.5088C44.0341 23.7525 43.692 24.0809 43.4324 24.471C43.1728 24.8612 43.0018 25.3035 42.9316 25.7668C42.8614 26.2302 42.8936 26.7033 43.026 27.1528L33.7578 33.7757L39.2824 35.9017L47.2367 29.2865C47.9771 29.014 48.5919 28.4794 48.9645 27.7839C49.3371 27.0885 49.4416 26.2805 49.2583 25.5131C49.0749 24.7457 48.6165 24.0722 47.9698 23.6202C47.323 23.1683 46.533 22.9693 45.7493 23.0609Z" fill="#FFB8B8"/>
<path d="M44.8881 33.0326L33.3918 44.6C31.8162 46.1751 29.7387 47.1484 27.5201 47.3509L13.3144 48.6471C12.7936 48.6967 12.2681 48.6415 11.7691 48.4847C11.27 48.3278 10.8074 48.0726 10.4086 47.7339C9.85698 47.2722 9.44676 46.6642 9.2251 45.9798C9.00344 45.2954 8.97934 44.5624 9.15556 43.8649C9.33178 43.1674 9.70118 42.5338 10.2213 42.0368C10.7415 41.5399 11.3912 41.1997 12.096 41.0554L26.6087 37.9653L39.8214 28.2257C40.0051 28.1223 40.2127 28.0688 40.4234 28.0703C40.6342 28.0719 40.8409 28.1286 41.023 28.2347L44.6162 31.1781C44.8324 31.2966 45.006 31.4798 45.1128 31.702C45.2196 31.9242 45.2541 32.1742 45.2116 32.417C45.1697 32.6506 45.0567 32.8656 44.8881 33.0326Z" fill="#2F2E41"/>
<path d="M182.722 39.2498C182.807 38.4602 182.648 37.6633 182.265 36.9676C181.882 36.2718 181.293 35.7109 180.58 35.3611L109.034 0.39241C108.579 0.169818 108.085 0.0390182 107.579 0.00748297C107.074 -0.0240523 106.567 0.0442918 106.088 0.208614C105.609 0.372937 105.166 0.630021 104.787 0.965185C104.407 1.30035 104.097 1.70703 103.874 2.16201L103.873 2.16469L77.0385 57.0685C76.5906 57.9881 76.5257 59.0478 76.8579 60.0152C77.1901 60.9827 77.8924 61.7789 78.8108 62.2294L150.357 97.1981C151.277 97.646 152.337 97.7109 153.304 97.3787C154.271 97.0464 155.068 96.3442 155.518 95.4258L182.353 40.522C182.549 40.1226 182.674 39.6921 182.722 39.2498Z" fill="#F2F2F2"/>
<path d="M140.806 161.11H47.9709C46.8021 161.109 45.6816 160.644 44.8551 159.817C44.0287 158.991 43.5638 157.87 43.5625 156.702V30.674C43.5638 29.5052 44.0287 28.3847 44.8551 27.5583C45.6816 26.7318 46.8021 26.2669 47.9709 26.2656H140.806C141.975 26.2669 143.095 26.7318 143.922 27.5583C144.748 28.3847 145.213 29.5052 145.214 30.674V156.702C145.213 157.87 144.748 158.991 143.922 159.817C143.095 160.644 141.975 161.109 140.806 161.11Z" fill="white"/>
<path d="M72.5958 63.8478C75.9408 63.8478 78.6525 61.1361 78.6525 57.7911C78.6525 54.4461 75.9408 51.7344 72.5958 51.7344C69.2508 51.7344 66.5391 54.4461 66.5391 57.7911C66.5391 61.1361 69.2508 63.8478 72.5958 63.8478Z" fill="#E6E6E6"/>
<path d="M63.3594 74.3435C64.2152 74.83 65.1109 75.2428 66.0367 75.5774L66.2003 75.634C68.0652 76.2888 70.0277 76.6221 72.0041 76.6198C72.4018 76.6198 72.7849 76.6059 73.1428 76.5788C74.0137 76.5255 74.8793 76.4061 75.7322 76.2218C76.2002 76.1195 76.6668 75.9972 77.1183 75.8586C77.2275 75.8264 77.3286 75.7948 77.4392 75.7601C79.2791 75.1636 81.0079 74.2677 82.5562 73.1086C82.4319 72.8735 82.2958 72.6449 82.1485 72.4236C81.3524 71.2072 80.2655 70.2085 78.9863 69.518C77.707 68.8275 76.2758 68.4668 74.822 68.4688H71.6343C69.9529 68.4691 68.307 68.9526 66.8927 69.8619C65.4784 70.7711 64.3551 72.0677 63.6568 73.5972C63.5452 73.8408 63.4459 74.0899 63.3594 74.3435Z" fill="#E6E6E6"/>
<path d="M74.6534 76.0677C74.45 76.0827 74.2542 76.1514 74.0859 76.2667C74.9406 76.2135 75.79 76.0956 76.6268 75.9141L74.6534 76.0677Z" fill="#2F2E41"/>
<path d="M72.9612 41.3594C69.0603 41.3598 65.2687 42.6479 62.1748 45.0237C59.0809 47.3996 56.8578 50.7303 55.8506 54.4989C54.8434 58.2675 55.1084 62.2632 56.6045 65.8658C58.1006 69.4683 60.7441 72.4763 64.1247 74.4227C65.0221 74.9424 65.9641 75.3808 66.9395 75.7329L67.1052 75.7903C68.9868 76.4509 70.967 76.7872 72.9612 76.7849C73.3469 76.7849 73.7326 76.7721 74.1119 76.7434C74.99 76.6894 75.8628 76.569 76.7227 76.3832C77.2041 76.278 77.6759 76.1537 78.1221 76.0166C78.2305 75.9847 78.3324 75.9529 78.444 75.9178C82.4532 74.6119 85.8652 71.9188 88.0665 68.3225C90.2679 64.7263 91.1143 60.4627 90.4536 56.2983C89.7929 52.1339 87.6684 48.3417 84.462 45.6034C81.2557 42.865 77.1777 41.3602 72.9612 41.3594ZM83.2384 72.3411C81.7103 73.5203 79.9903 74.4272 78.154 75.022C78.0552 75.0539 77.9531 75.0858 77.8511 75.1177C77.4271 75.2483 76.9809 75.3631 76.5219 75.4619C75.7084 75.6395 74.8824 75.7546 74.0514 75.8062C73.6912 75.8317 73.3245 75.8444 72.9612 75.8444C71.0735 75.8456 69.1993 75.5276 67.4176 74.9041L67.2615 74.8499C66.2913 74.5012 65.3563 74.0615 64.469 73.5365C61.3787 71.7172 58.9534 68.9546 57.5495 65.6547C56.1457 62.3548 55.8373 58.6916 56.6696 55.2035C57.502 51.7153 59.4312 48.5861 62.1738 46.2757C64.9164 43.9652 68.3278 42.5954 71.9066 42.3675C75.4855 42.1395 79.0431 43.0655 82.0566 45.0094C85.0702 46.9532 87.3808 49.8124 88.649 53.1667C89.9171 56.5211 90.0759 60.1938 89.102 63.6451C88.1282 67.0965 86.0729 70.1444 83.2384 72.3411Z" fill="#CCCCCC"/>
<path d="M140.806 161.11H47.9709C46.8021 161.109 45.6816 160.644 44.8551 159.817C44.0287 158.991 43.5638 157.87 43.5625 156.702V30.674C43.5638 29.5052 44.0287 28.3847 44.8551 27.5583C45.6816 26.7318 46.8021 26.2669 47.9709 26.2656H140.806C141.975 26.2669 143.095 26.7318 143.922 27.5583C144.748 28.3847 145.213 29.5052 145.214 30.674V156.702C145.213 157.87 144.748 158.991 143.922 159.817C143.095 160.644 141.975 161.109 140.806 161.11ZM47.9709 26.7843C46.9396 26.7854 45.9509 27.1956 45.2217 27.9248C44.4925 28.654 44.0823 29.6427 44.0811 30.674V156.702C44.0823 157.733 44.4925 158.721 45.2217 159.451C45.9509 160.18 46.9396 160.59 47.9709 160.591H140.806C141.837 160.59 142.826 160.18 143.555 159.451C144.284 158.721 144.695 157.733 144.696 156.702V30.674C144.695 29.6427 144.284 28.654 143.555 27.9248C142.826 27.1956 141.837 26.7854 140.806 26.7843L47.9709 26.7843Z" fill="#CCCCCC"/>
<path d="M122.84 59.0001H96.5704C96.0192 59.0001 95.4906 58.7812 95.1009 58.3914C94.7111 58.0017 94.4922 57.4731 94.4922 56.9219C94.4922 56.3708 94.7111 55.8422 95.1009 55.4524C95.4906 55.0627 96.0192 54.8438 96.5704 54.8438H122.84C123.391 54.8438 123.919 55.0627 124.309 55.4524C124.699 55.8422 124.918 56.3708 124.918 56.9219C124.918 57.4731 124.699 58.0017 124.309 58.3914C123.919 58.7812 123.391 59.0001 122.84 59.0001Z" fill="#E6E6E6"/>
<path d="M131.412 66.0157H96.5704C96.0192 66.0157 95.4906 65.7968 95.1009 65.4071C94.7111 65.0173 94.4922 64.4887 94.4922 63.9376C94.4922 63.3864 94.7111 62.8578 95.1009 62.4681C95.4906 62.0783 96.0192 61.8594 96.5704 61.8594H131.412C131.963 61.8594 132.492 62.0783 132.882 62.4681C133.271 62.8578 133.49 63.3864 133.49 63.9376C133.49 64.4887 133.271 65.0173 132.882 65.4071C132.492 65.7968 131.963 66.0157 131.412 66.0157Z" fill="#E6E6E6"/>
<path d="M122.801 92.9142H57.3751C56.8239 92.9142 56.2953 92.6952 55.9056 92.3055C55.5158 91.9158 55.2969 91.3872 55.2969 90.836C55.2969 90.2848 55.5158 89.7562 55.9056 89.3665C56.2953 88.9768 56.8239 88.7578 57.3751 88.7578H122.801C123.352 88.7578 123.881 88.9768 124.27 89.3665C124.66 89.7562 124.879 90.2848 124.879 90.836C124.879 91.3872 124.66 91.9158 124.27 92.3055C123.881 92.6952 123.352 92.9142 122.801 92.9142Z" fill="#E6E6E6"/>
<path d="M131.373 99.9298H57.3751C56.8239 99.9298 56.2953 99.7109 55.9056 99.3211C55.5158 98.9314 55.2969 98.4028 55.2969 97.8516C55.2969 97.3005 55.5158 96.7719 55.9056 96.3821C56.2953 95.9924 56.8239 95.7734 57.3751 95.7734H131.373C131.925 95.7734 132.453 95.9924 132.843 96.3821C133.233 96.7719 133.452 97.3005 133.452 97.8516C133.452 98.4028 133.233 98.9314 132.843 99.3211C132.453 99.7109 131.925 99.9298 131.373 99.9298Z" fill="#E6E6E6"/>
<path d="M122.801 116.047H57.3751C56.8239 116.047 56.2953 115.828 55.9056 115.438C55.5158 115.049 55.2969 114.52 55.2969 113.969C55.2969 113.418 55.5158 112.889 55.9056 112.499C56.2953 112.11 56.8239 111.891 57.3751 111.891H122.801C123.352 111.891 123.881 112.11 124.27 112.499C124.66 112.889 124.879 113.418 124.879 113.969C124.879 114.52 124.66 115.049 124.27 115.438C123.881 115.828 123.352 116.047 122.801 116.047Z" fill="#E6E6E6"/>
<path d="M131.373 123.063H57.3751C56.8239 123.063 56.2953 122.844 55.9056 122.454C55.5158 122.064 55.2969 121.536 55.2969 120.984C55.2969 120.433 55.5158 119.905 55.9056 119.515C56.2953 119.125 56.8239 118.906 57.3751 118.906H131.373C131.925 118.906 132.453 119.125 132.843 119.515C133.233 119.905 133.452 120.433 133.452 120.984C133.452 121.536 133.233 122.064 132.843 122.454C132.453 122.844 131.925 123.063 131.373 123.063Z" fill="#E6E6E6"/>
<path d="M122.801 139.188H57.3751C56.8239 139.188 56.2953 138.969 55.9056 138.579C55.5158 138.189 55.2969 137.661 55.2969 137.109C55.2969 136.558 55.5158 136.03 55.9056 135.64C56.2953 135.25 56.8239 135.031 57.3751 135.031H122.801C123.352 135.031 123.881 135.25 124.27 135.64C124.66 136.03 124.879 136.558 124.879 137.109C124.879 137.661 124.66 138.189 124.27 138.579C123.881 138.969 123.352 139.188 122.801 139.188Z" fill="#E6E6E6"/>
<path d="M131.373 146.195H57.3751C56.8239 146.195 56.2953 145.976 55.9056 145.587C55.5158 145.197 55.2969 144.668 55.2969 144.117C55.2969 143.566 55.5158 143.037 55.9056 142.648C56.2953 142.258 56.8239 142.039 57.3751 142.039H131.373C131.924 142.04 132.452 142.259 132.841 142.649C133.23 143.038 133.449 143.567 133.449 144.117C133.449 144.668 133.23 145.196 132.841 145.586C132.452 145.976 131.924 146.195 131.373 146.195Z" fill="#E6E6E6"/>
<path d="M179.534 75.2733C179.62 74.4836 179.46 73.6868 179.077 72.991C178.694 72.2953 178.106 71.7344 177.393 71.3845L105.846 36.4158C105.391 36.1933 104.897 36.0625 104.392 36.0309C103.886 35.9994 103.379 36.0677 102.9 36.2321C102.421 36.3964 101.979 36.6535 101.599 36.9886C101.219 37.3238 100.909 37.7305 100.687 38.1854L100.686 38.1881L73.851 93.0919C73.4031 94.0115 73.3382 95.0712 73.6704 96.0387C74.0026 97.0061 74.7049 97.8024 75.6233 98.2528L147.17 133.222C148.089 133.669 149.149 133.734 150.116 133.402C151.084 133.07 151.88 132.368 152.331 131.449L179.165 76.5455C179.361 76.1461 179.486 75.7156 179.534 75.2733Z" fill="white"/>
<path d="M179.534 75.2733C179.62 74.4836 179.46 73.6868 179.077 72.991C178.694 72.2953 178.106 71.7344 177.393 71.3845L105.846 36.4158C105.391 36.1933 104.897 36.0625 104.392 36.0309C103.886 35.9994 103.379 36.0677 102.9 36.2321C102.421 36.3964 101.979 36.6535 101.599 36.9886C101.219 37.3238 100.909 37.7305 100.687 38.1854L100.686 38.1881L73.851 93.0919C73.4031 94.0115 73.3382 95.0712 73.6704 96.0387C74.0026 97.0061 74.7049 97.8024 75.6233 98.2528L147.17 133.222C148.089 133.669 149.149 133.734 150.116 133.402C151.084 133.07 151.88 132.368 152.331 131.449L179.165 76.5455C179.361 76.1461 179.486 75.7156 179.534 75.2733ZM151.923 131.25C151.525 132.06 150.823 132.68 149.969 132.973C149.116 133.266 148.18 133.209 147.369 132.814L75.8226 97.845C75.0122 97.4477 74.3924 96.7451 74.0992 95.8914C73.8061 95.0377 73.8635 94.1026 74.2588 93.2912L101.093 38.3875C101.491 37.577 102.193 36.9572 103.047 36.6641C103.901 36.3709 104.836 36.4283 105.647 36.8237L177.193 71.7924C178.004 72.1897 178.624 72.8923 178.917 73.746C179.21 74.5996 179.153 75.5347 178.757 76.3461L151.923 131.25Z" fill="#3F3D56"/>
<path d="M171.733 77.7687L152.995 116.106C152.87 116.362 152.648 116.558 152.379 116.651C152.11 116.743 151.815 116.725 151.559 116.6L86.4775 84.7913C86.431 84.769 86.3864 84.7428 86.3444 84.7129C86.131 84.5677 85.9771 84.3504 85.9109 84.1008C85.8447 83.8513 85.8707 83.5863 85.984 83.3544L104.722 45.0167C104.784 44.89 104.87 44.7767 104.976 44.6833C105.081 44.5899 105.204 44.5182 105.338 44.4724C105.471 44.4265 105.612 44.4074 105.753 44.4161C105.894 44.4248 106.031 44.4611 106.158 44.523L171.239 76.3317C171.495 76.4567 171.691 76.6783 171.784 76.9476C171.876 77.217 171.858 77.5121 171.733 77.768L171.733 77.7687Z" fill="#E6E6E6"/>
<path d="M114.597 75.8268C119.802 75.8268 124.022 71.607 124.022 66.4017C124.022 61.1963 119.802 56.9766 114.597 56.9766C109.392 56.9766 105.172 61.1963 105.172 66.4017C105.172 71.607 109.392 75.8268 114.597 75.8268Z" fill="#2FA2B9"/>
<path d="M128.393 105.471L86.8523 85.1682C86.8 85.1434 86.75 85.1139 86.7031 85.08L122.983 60.6514C123.206 60.4981 123.466 60.4068 123.737 60.3869C124.007 60.3671 124.278 60.4193 124.521 60.5383C124.765 60.6573 124.972 60.8389 125.123 61.0643C125.273 61.2898 125.361 61.5512 125.377 61.8217L127.401 91.1037L127.498 92.5052L128.393 105.471Z" fill="#3F3D56"/>
<path opacity="0.2" d="M128.394 105.469L114.211 98.537L126.116 91.8268L126.973 91.3435L127.402 91.1016L127.499 92.5029L128.394 105.469Z" fill="black"/>
<path d="M151.523 116.775L115.594 99.2148L127.499 92.5046L128.356 92.0209L143.87 83.2759C144.887 82.7028 146.344 83.3484 146.675 84.4448C146.697 84.5193 146.714 84.595 146.726 84.6716L151.523 116.775Z" fill="#3F3D56"/>
<path d="M40.665 120.121L44.5729 120.121L46.4323 105.047L40.6641 105.047L40.665 120.121Z" fill="#FFB8B8"/>
<path d="M39.6719 118.844L47.3683 118.844C48.0124 118.844 48.6505 118.971 49.2456 119.217C49.8407 119.464 50.3814 119.825 50.8369 120.28C51.2923 120.736 51.6536 121.276 51.9001 121.871C52.1466 122.467 52.2735 123.104 52.2734 123.748V123.908L39.6721 123.908L39.6719 118.844Z" fill="#2F2E41"/>
<path d="M10.2891 117.633L14.3381 118.425L19.32 103.185L13.3442 102.016L10.2891 117.633Z" fill="#FFB8B8"/>
<path d="M9.5185 116.109L17.4925 117.669L17.4928 117.669C18.1601 117.8 18.7952 118.06 19.3618 118.436C19.9283 118.812 20.4153 119.296 20.7949 119.861C21.1744 120.425 21.4391 121.058 21.5739 121.725C21.7086 122.391 21.7108 123.078 21.5802 123.745L21.5479 123.91L8.49219 121.356L9.5185 116.109Z" fill="#2F2E41"/>
<path d="M46.3465 68.1214C46.2142 67.6718 45.9849 67.2567 45.6748 66.9053C45.3647 66.554 44.9814 66.2749 44.5517 66.0877C44.1221 65.9005 43.6567 65.8098 43.1882 65.822C42.7197 65.8341 42.2596 65.9489 41.8403 66.1581L33.6943 58.1953L32.5703 64.0072L40.4782 70.6777C40.8764 71.3589 41.5106 71.8703 42.2606 72.1152C43.0107 72.36 43.8245 72.3211 44.5478 72.006C45.2712 71.6909 45.8538 71.1214 46.1853 70.4055C46.5168 69.6895 46.5742 68.8768 46.3465 68.1214Z" fill="#FFB8B8"/>
<path d="M16.1263 27.1354C20.4504 27.1354 23.9558 23.6301 23.9558 19.306C23.9558 14.9819 20.4504 11.4766 16.1263 11.4766C11.8022 11.4766 8.29688 14.9819 8.29688 19.306C8.29688 23.6301 11.8022 27.1354 16.1263 27.1354Z" fill="#FFB8B8"/>
<path d="M14.4835 27.2533C14.8994 27.4353 15.7513 24.1206 15.3697 23.4576C14.8022 22.4717 14.8358 22.4788 14.4591 21.8265C14.0823 21.1741 13.998 20.2813 14.4859 19.7074C14.9737 19.1334 16.1027 19.2095 16.3253 19.9292C16.1821 18.5623 17.5341 17.4636 18.8733 17.1548C20.2125 16.8461 21.6251 17.0378 22.9717 16.763C24.5345 16.4441 26.1605 15.1341 25.5369 13.4156C25.4299 13.1295 25.2698 12.8662 25.0648 12.6397C24.3444 11.8297 23.3367 11.4839 22.3514 11.1494C20.3017 10.4537 18.1959 9.74927 16.0326 9.82607C14.2502 9.91927 12.5337 10.53 11.093 11.5836C9.65231 12.6372 8.55001 14.0879 7.92098 15.7582C7.7719 16.1761 7.65641 16.6052 7.57561 17.0414C6.83311 21.0338 9.15153 24.9719 12.9171 26.4922L14.4835 27.2533Z" fill="#2F2E41"/>
<path d="M12.5647 70.2716C12.365 70.1508 12.205 69.9744 12.1043 69.7639C12.0036 69.5533 11.9667 69.318 11.998 69.0868L8.465 51.5856L4.88376 38.1541C4.4906 36.6823 4.60942 35.1206 5.22058 33.7252C5.83174 32.3298 6.89902 31.1836 8.24732 30.4745L10.6149 28.2344L15.7798 30.4596L18.234 32.955C19.9943 33.8121 21.5558 35.028 22.8181 36.5246C24.0805 38.0212 25.0157 39.7654 25.5637 41.645L29.5 55.1148L38.5906 68.6394C38.7424 68.8648 38.8134 69.1349 38.792 69.4058C38.7706 69.6767 38.6582 69.9324 38.4729 70.1312C37.2082 71.4916 12.5647 70.2716 12.5647 70.2716Z" fill="#2F2E41"/>
<path d="M36.3823 69.0224L22.9776 59.7334C21.1506 58.4586 19.8279 56.584 19.2394 54.4353L15.4715 40.6773C15.3312 40.1733 15.2934 39.6463 15.3602 39.1274C15.4271 38.6086 15.5973 38.1084 15.8607 37.6564C16.2185 37.0323 16.7451 36.5218 17.38 36.1835C18.0149 35.8452 18.7324 35.6929 19.4499 35.7441C20.1675 35.7952 20.8561 36.0477 21.4366 36.4726C22.0171 36.8975 22.466 37.4775 22.7317 38.1461L28.3197 51.8917L40.2259 63.1911C40.3599 63.3538 40.449 63.5487 40.4845 63.7565C40.5199 63.9642 40.5004 64.1777 40.4279 64.3756L38.1604 68.4294C38.0816 68.663 37.9318 68.8661 37.7318 69.0102C37.5317 69.1543 37.2916 69.2322 37.0451 69.2329C36.8078 69.2326 36.5764 69.1591 36.3823 69.0224Z" fill="#2F2E41"/>
<path d="M8.52717 115.303C8.41758 115.146 8.3474 114.965 8.32257 114.775C8.29774 114.585 8.31899 114.392 8.38451 114.212L14.5858 91.6686L15.0442 69.5792L35.9196 68.1475L36.021 68.1406L42.3085 79.5365C44.2771 83.0994 45.4822 87.0332 45.847 91.0874L47.9191 113.794C47.9504 114.102 47.8594 114.411 47.6656 114.653C47.4719 114.895 47.1908 115.052 46.8828 115.089L40.5884 115.688C40.2852 115.725 39.9795 115.642 39.7366 115.456C39.4936 115.271 39.3327 114.998 39.2882 114.696L36.7322 91.6223L27.5357 76.0835L24.4486 92.4425L18.0531 115.034C17.9695 115.259 17.8193 115.454 17.6224 115.592C17.4255 115.73 17.1912 115.805 16.9507 115.807L9.49133 115.81C9.30141 115.811 9.11418 115.765 8.94607 115.677C8.77796 115.589 8.63411 115.46 8.52717 115.303Z" fill="#2F2E41"/>
<path d="M168.371 189.443H11.0665C8.27745 189.44 5.60359 188.33 3.63147 186.358C1.65935 184.386 0.550025 181.712 0.546875 178.923V92.5352C0.550025 89.7462 1.65935 87.0723 3.63147 85.1002C5.60359 83.1281 8.27745 82.0188 11.0665 82.0156H30.3532C32.9701 82.0134 35.4935 82.9888 37.4284 84.7506L58.3438 99.6855C59.7073 100.932 61.4882 101.622 63.3354 101.62H169.347C170.742 101.62 172.122 101.898 173.409 102.436C174.695 102.974 175.861 103.763 176.84 104.756C177.819 105.749 178.59 106.927 179.11 108.221C179.629 109.515 179.886 110.899 179.866 112.294L178.889 179.077C178.837 181.836 177.708 184.466 175.742 186.403C173.776 188.34 171.131 189.431 168.371 189.443Z" fill="white"/>
<path d="M166.973 184.348H11.9966C10.6512 184.347 9.36127 183.812 8.4099 182.86C7.45854 181.909 6.92339 180.619 6.92188 179.274V91.4732C6.9234 90.1277 7.45854 88.8378 8.40991 87.8865C9.36127 86.9351 10.6512 86.4 11.9966 86.3984C13.1866 86.3998 14.3275 86.8731 15.169 87.7146C16.0105 88.556 16.4838 89.6969 16.4851 90.887V173.217C16.4866 174.478 16.9881 175.687 17.8797 176.578C18.7713 177.47 19.9802 177.972 21.2411 177.973H166.449C167.171 177.965 167.874 178.199 168.447 178.637C169.02 179.076 169.429 179.693 169.61 180.392C169.812 181.054 169.787 181.765 169.538 182.411C169.29 183.057 168.831 183.602 168.237 183.957C167.86 184.202 167.422 184.338 166.973 184.348Z" fill="#F2F2F2"/>
<path d="M90.8978 142.181L90.4898 141.773C90.4052 141.694 90.3556 141.584 90.3518 141.468C90.348 141.353 90.3903 141.24 90.4695 141.156C90.476 141.149 90.4828 141.142 90.4898 141.135L94.0696 137.552C94.1088 137.51 94.1559 137.477 94.2081 137.453C94.2603 137.429 94.3167 137.416 94.3741 137.414C94.4314 137.412 94.4885 137.422 94.5422 137.442C94.5959 137.462 94.645 137.493 94.6869 137.532C94.6939 137.539 94.7006 137.545 94.7072 137.552L98.287 141.132C98.3289 141.173 98.3624 141.221 98.3856 141.274C98.4088 141.328 98.4213 141.385 98.4223 141.443C98.4233 141.501 98.4128 141.559 98.3915 141.613C98.3702 141.667 98.3384 141.717 98.298 141.759L98.287 141.77L97.879 142.178C97.8386 142.22 97.7903 142.253 97.7369 142.276C97.6836 142.299 97.6262 142.312 97.568 142.313C97.5098 142.314 97.452 142.304 97.3979 142.282C97.3437 142.261 97.2943 142.229 97.2524 142.189L97.2414 142.178L95.1248 139.946V145.241C95.1252 145.299 95.1142 145.356 95.0925 145.41C95.0708 145.463 95.0387 145.512 94.9982 145.553C94.9576 145.594 94.9094 145.627 94.8562 145.65C94.8029 145.672 94.7458 145.684 94.6881 145.684L94.6848 145.684H94.0951C93.9776 145.684 93.8649 145.638 93.7818 145.554C93.6987 145.471 93.652 145.359 93.652 145.241V139.953L91.5353 142.184C91.4533 142.268 91.3412 142.316 91.2237 142.318C91.1062 142.319 90.9929 142.274 90.9088 142.192L90.8978 142.181Z" fill="#2FA2B9"/>
<path d="M94.3853 134.292C95.8221 134.292 97.2267 134.718 98.4214 135.517C99.6161 136.315 100.547 137.449 101.097 138.777C101.647 140.104 101.791 141.565 101.511 142.974C101.23 144.384 100.538 145.678 99.5223 146.694C98.5063 147.71 97.2118 148.402 95.8026 148.682C94.3933 148.963 92.9326 148.819 91.6051 148.269C90.2776 147.719 89.143 146.788 88.3448 145.593C87.5465 144.399 87.1204 142.994 87.1204 141.557C87.1221 139.631 87.888 137.784 89.2501 136.422C90.6122 135.06 92.459 134.294 94.3853 134.292ZM94.3853 133.336C92.7593 133.336 91.1698 133.818 89.8178 134.721C88.4658 135.625 87.4121 136.909 86.7899 138.411C86.1676 139.913 86.0048 141.566 86.322 143.161C86.6393 144.756 87.4222 146.221 88.572 147.37C89.7218 148.52 91.1866 149.303 92.7814 149.62C94.3762 149.938 96.0292 149.775 97.5314 149.153C99.0336 148.53 100.318 147.477 101.221 146.125C102.124 144.773 102.606 143.183 102.606 141.557C102.606 139.377 101.74 137.286 100.199 135.744C98.6568 134.202 96.5657 133.336 94.3853 133.336Z" fill="#3F3D56"/>
<path d="M168.371 189.443H11.0665C8.27745 189.44 5.60359 188.33 3.63147 186.358C1.65935 184.386 0.550025 181.712 0.546875 178.923V92.5352C0.550025 89.7462 1.65935 87.0723 3.63147 85.1002C5.60359 83.1281 8.27745 82.0188 11.0665 82.0156H30.3532C32.9701 82.0134 35.4935 82.9888 37.4284 84.7506L58.3438 99.6855C59.7073 100.932 61.4882 101.622 63.3354 101.62H169.347C170.742 101.62 172.122 101.898 173.409 102.436C174.695 102.974 175.861 103.763 176.84 104.756C177.819 105.749 178.59 106.927 179.11 108.221C179.629 109.515 179.886 110.899 179.866 112.294L178.889 179.077C178.837 181.836 177.708 184.466 175.742 186.403C173.776 188.34 171.131 189.431 168.371 189.443ZM11.0665 82.6532C8.44649 82.6562 5.93469 83.6982 4.08209 85.5508C2.2295 87.4034 1.1874 89.9152 1.18443 92.5352V178.923C1.1874 181.543 2.2295 184.055 4.08209 185.908C5.93469 187.76 8.44649 188.802 11.0665 188.805H168.371C170.963 188.795 173.449 187.77 175.295 185.95C177.142 184.13 178.203 181.66 178.252 179.068L179.228 112.284C179.248 110.975 179.006 109.674 178.518 108.458C178.03 107.243 177.305 106.136 176.386 105.203C175.466 104.27 174.371 103.53 173.162 103.024C171.954 102.518 170.657 102.258 169.347 102.258H63.3354C61.3358 102.26 59.4076 101.515 57.9283 100.169L37.013 85.2345C35.1937 83.572 32.8177 82.6511 30.3532 82.6532H11.0665Z" fill="#3F3D56"/>
<path d="M181.708 191.129H177.8L176.578 176.055L181.708 176.055L181.708 191.129Z" fill="#FFB8B8"/>
<path d="M182.703 194.916L170.102 194.916V194.756C170.102 194.112 170.228 193.474 170.475 192.879C170.721 192.284 171.083 191.744 171.538 191.288C171.994 190.833 172.534 190.471 173.129 190.225C173.724 189.978 174.362 189.852 175.006 189.852L182.703 189.852L182.703 194.916Z" fill="#2F2E41"/>
<path d="M225.377 191.129H221.468L219.609 176.055L225.377 176.055L225.377 191.129Z" fill="#FFB8B8"/>
<path d="M226.375 194.916L213.773 194.916V194.756C213.773 194.112 213.9 193.474 214.147 192.879C214.393 192.284 214.755 191.744 215.21 191.288C215.665 190.833 216.206 190.471 216.801 190.225C217.396 189.978 218.034 189.852 218.678 189.852L226.375 189.852L226.375 194.916Z" fill="#2F2E41"/>
<path d="M212.526 144.524C213.065 143.892 213.369 143.092 213.386 142.261C213.403 141.43 213.132 140.619 212.619 139.965C212.515 139.84 212.4 139.724 212.277 139.618L215.221 128.75L210.315 130.378L208.272 140.448C207.933 141.069 207.783 141.776 207.84 142.481C207.898 143.186 208.161 143.859 208.596 144.417C208.824 144.718 209.116 144.964 209.452 145.136C209.787 145.309 210.158 145.404 210.535 145.414C210.912 145.425 211.287 145.35 211.632 145.196C211.976 145.042 212.282 144.812 212.526 144.524Z" fill="#FFB8B8"/>
<path d="M212.336 137.838C212.275 137.838 212.213 137.833 212.152 137.824L209.596 137.438C209.397 137.404 209.208 137.327 209.042 137.212C208.876 137.097 208.737 136.947 208.636 136.773C208.414 136.402 208.334 135.964 208.411 135.539L211.601 117.725L209.438 106.28C209.021 104.078 210.097 101.853 211.941 101.106C212.488 100.882 213.083 100.804 213.67 100.879C214.256 100.954 214.813 101.18 215.285 101.535C215.796 101.921 216.219 102.41 216.528 102.971C216.836 103.532 217.024 104.151 217.077 104.789L218.608 119.381L218.59 119.445L213.663 136.738C213.592 137.041 213.424 137.312 213.184 137.511C212.945 137.709 212.647 137.824 212.336 137.838Z" fill="#2FA2B9"/>
<path d="M211.579 94.8073C215.904 94.8073 219.409 91.302 219.409 86.9779C219.409 82.6538 215.904 79.1484 211.579 79.1484C207.255 79.1484 203.75 82.6538 203.75 86.9779C203.75 91.302 207.255 94.8073 211.579 94.8073Z" fill="#FFB8B8"/>
<path d="M207.577 123.364C207.382 123.364 207.189 123.328 207.007 123.258L194.632 118.498C194.297 118.371 194.015 118.133 193.832 117.825C193.649 117.517 193.576 117.155 193.624 116.8L194.121 113.073C193.826 111.751 193.853 110.378 194.2 109.07C194.547 107.761 195.203 106.555 196.113 105.553L196.414 105.221L200.076 98.5448C200.324 98.0924 200.659 97.6937 201.062 97.3715C201.465 97.0493 201.927 96.8101 202.423 96.6676C202.919 96.5252 203.438 96.4822 203.951 96.5414C204.463 96.6005 204.959 96.7606 205.409 97.0122L211.875 100.625C212.726 101.1 213.368 101.876 213.676 102.801C214.546 105.419 214.481 108.257 213.493 110.833L209.066 122.343C208.949 122.643 208.745 122.901 208.479 123.083C208.213 123.265 207.899 123.363 207.577 123.364Z" fill="#2FA2B9"/>
<path d="M175.146 187.424L175.129 187.421C174.918 187.38 174.717 187.297 174.539 187.177C174.361 187.057 174.209 186.902 174.092 186.722C173.975 186.541 173.896 186.339 173.859 186.127C173.823 185.915 173.829 185.698 173.879 185.489L183.362 144.036C184.914 137.464 187.059 131.047 189.77 124.863L193.804 115.664L208.859 122.537L211.008 126.468C212.684 130.847 213.546 135.494 213.551 140.183L228.848 185.013C228.922 185.231 228.949 185.464 228.924 185.694C228.9 185.924 228.826 186.146 228.708 186.345C228.589 186.543 228.429 186.713 228.238 186.844C228.047 186.974 227.83 187.061 227.601 187.099L219.228 187.005C219.149 187.019 219.068 187.026 218.988 187.025C218.671 187.025 218.361 186.93 218.098 186.752C217.835 186.574 217.632 186.321 217.515 186.026L200.029 140.7C200.004 140.64 199.961 140.589 199.906 140.554C199.852 140.518 199.787 140.501 199.722 140.503C199.658 140.504 199.597 140.525 199.545 140.562C199.494 140.599 199.455 140.652 199.434 140.712L182.843 186.263C182.716 186.617 182.467 186.915 182.14 187.102C181.814 187.29 181.432 187.355 181.062 187.286L175.146 187.424Z" fill="#2F2E41"/>
<path d="M186.588 136.452C187.03 136.295 187.432 136.043 187.765 135.714C188.099 135.385 188.356 134.987 188.519 134.547C188.682 134.108 188.747 133.638 188.709 133.171C188.671 132.704 188.531 132.251 188.299 131.844L195.797 123.269L189.932 122.469L183.71 130.735C183.052 131.17 182.577 131.832 182.374 132.594C182.171 133.356 182.255 134.167 182.61 134.872C182.965 135.576 183.565 136.126 184.299 136.418C185.032 136.709 185.847 136.721 186.588 136.452Z" fill="#FFB8B8"/>
<path d="M190.129 130.411C189.868 130.411 189.611 130.347 189.381 130.224L186.742 128.817C186.549 128.714 186.378 128.571 186.242 128.399C186.106 128.227 186.007 128.029 185.951 127.817C185.895 127.604 185.884 127.383 185.917 127.166C185.951 126.949 186.029 126.742 186.147 126.556L195.893 111.199L197.583 99.6092C197.67 99.0102 197.878 98.4351 198.194 97.9189C198.51 97.4026 198.928 96.9559 199.422 96.6058C199.916 96.2556 200.475 96.0093 201.067 95.8817C201.659 95.7542 202.27 95.748 202.864 95.8636C203.459 95.9793 204.023 96.2143 204.524 96.5544C205.025 96.8946 205.451 97.3329 205.778 97.8426C206.104 98.3524 206.324 98.9232 206.423 99.5203C206.522 100.117 206.5 100.728 206.356 101.317L202.867 115.601L191.371 129.82C191.221 130.005 191.032 130.154 190.817 130.257C190.602 130.359 190.367 130.412 190.129 130.411Z" fill="#2FA2B9"/>
<path d="M204.532 80.5138C205.438 77.5439 210.67 76.219 215.02 77.4512C219.369 78.6834 222.493 81.914 223.22 85.0727C224.831 92.0673 216.43 97.7442 217.952 104.74C218.96 109.368 224.786 113.744 231.348 114.801C224.116 116.314 215.29 114.984 208.584 111.371C204.41 109.122 200.909 105.729 200.962 102.306C200.994 100.234 202.312 98.4015 203.924 96.8184C205.536 95.2352 207.466 93.8279 208.945 92.1754C210.425 90.5229 211.45 88.5442 211.018 86.4464C210.586 84.3487 208.393 82.161 205.442 81.5507L204.532 80.5138Z" fill="#2F2E41"/>
<path d="M248.139 195.497H126.686C126.601 195.497 126.52 195.463 126.461 195.404C126.401 195.344 126.367 195.263 126.367 195.178C126.367 195.094 126.401 195.013 126.461 194.953C126.52 194.893 126.601 194.859 126.686 194.859H248.139C248.224 194.859 248.305 194.893 248.365 194.953C248.424 195.013 248.458 195.094 248.458 195.178C248.458 195.263 248.424 195.344 248.365 195.404C248.305 195.463 248.224 195.497 248.139 195.497Z" fill="#CCCCCC"/>
</g>
<defs>
<clipPath id="clip0_28_47417">
<rect width="247.91" height="195.5" fill="white" transform="translate(0.546875)"/>
</clipPath>
</defs>
</svg>
